%TF.GenerationSoftware,KiCad,Pcbnew,9.0.1-1.fc42*%
%TF.CreationDate,2025-04-25T16:42:34-04:00*%
%TF.ProjectId,IGBT_DRVR_CM400HA-24H,49474254-5f44-4525-9652-5f434d343030,rev?*%
%TF.SameCoordinates,Original*%
%TF.FileFunction,Copper,L1,Top*%
%TF.FilePolarity,Positive*%
%FSLAX46Y46*%
G04 Gerber Fmt 4.6, Leading zero omitted, Abs format (unit mm)*
G04 Created by KiCad (PCBNEW 9.0.1-1.fc42) date 2025-04-25 16:42:34*
%MOMM*%
%LPD*%
G01*
G04 APERTURE LIST*
G04 Aperture macros list*
%AMRoundRect*
0 Rectangle with rounded corners*
0 $1 Rounding radius*
0 $2 $3 $4 $5 $6 $7 $8 $9 X,Y pos of 4 corners*
0 Add a 4 corners polygon primitive as box body*
4,1,4,$2,$3,$4,$5,$6,$7,$8,$9,$2,$3,0*
0 Add four circle primitives for the rounded corners*
1,1,$1+$1,$2,$3*
1,1,$1+$1,$4,$5*
1,1,$1+$1,$6,$7*
1,1,$1+$1,$8,$9*
0 Add four rect primitives between the rounded corners*
20,1,$1+$1,$2,$3,$4,$5,0*
20,1,$1+$1,$4,$5,$6,$7,0*
20,1,$1+$1,$6,$7,$8,$9,0*
20,1,$1+$1,$8,$9,$2,$3,0*%
%AMFreePoly0*
4,1,9,3.862500,-0.866500,0.737500,-0.866500,0.737500,-0.450000,-0.737500,-0.450000,-0.737500,0.450000,0.737500,0.450000,0.737500,0.866500,3.862500,0.866500,3.862500,-0.866500,3.862500,-0.866500,$1*%
G04 Aperture macros list end*
%TA.AperFunction,SMDPad,CuDef*%
%ADD10C,1.000000*%
%TD*%
%TA.AperFunction,ComponentPad*%
%ADD11RoundRect,0.249999X-1.550001X0.790001X-1.550001X-0.790001X1.550001X-0.790001X1.550001X0.790001X0*%
%TD*%
%TA.AperFunction,ComponentPad*%
%ADD12O,3.600000X2.080000*%
%TD*%
%TA.AperFunction,SMDPad,CuDef*%
%ADD13RoundRect,0.150000X0.875000X0.150000X-0.875000X0.150000X-0.875000X-0.150000X0.875000X-0.150000X0*%
%TD*%
%TA.AperFunction,SMDPad,CuDef*%
%ADD14RoundRect,0.250000X0.362500X1.425000X-0.362500X1.425000X-0.362500X-1.425000X0.362500X-1.425000X0*%
%TD*%
%TA.AperFunction,SMDPad,CuDef*%
%ADD15RoundRect,0.250000X-0.625000X0.312500X-0.625000X-0.312500X0.625000X-0.312500X0.625000X0.312500X0*%
%TD*%
%TA.AperFunction,SMDPad,CuDef*%
%ADD16RoundRect,0.225000X-0.225000X-0.250000X0.225000X-0.250000X0.225000X0.250000X-0.225000X0.250000X0*%
%TD*%
%TA.AperFunction,SMDPad,CuDef*%
%ADD17R,1.585000X1.780000*%
%TD*%
%TA.AperFunction,SMDPad,CuDef*%
%ADD18RoundRect,0.250000X-1.425000X0.362500X-1.425000X-0.362500X1.425000X-0.362500X1.425000X0.362500X0*%
%TD*%
%TA.AperFunction,SMDPad,CuDef*%
%ADD19RoundRect,0.225000X-0.250000X0.225000X-0.250000X-0.225000X0.250000X-0.225000X0.250000X0.225000X0*%
%TD*%
%TA.AperFunction,SMDPad,CuDef*%
%ADD20RoundRect,0.112500X-0.112500X-0.237500X0.112500X-0.237500X0.112500X0.237500X-0.112500X0.237500X0*%
%TD*%
%TA.AperFunction,SMDPad,CuDef*%
%ADD21RoundRect,0.250000X0.625000X-0.312500X0.625000X0.312500X-0.625000X0.312500X-0.625000X-0.312500X0*%
%TD*%
%TA.AperFunction,ComponentPad*%
%ADD22C,0.900000*%
%TD*%
%TA.AperFunction,ComponentPad*%
%ADD23C,8.600000*%
%TD*%
%TA.AperFunction,SMDPad,CuDef*%
%ADD24RoundRect,0.225000X0.225000X-0.425000X0.225000X0.425000X-0.225000X0.425000X-0.225000X-0.425000X0*%
%TD*%
%TA.AperFunction,SMDPad,CuDef*%
%ADD25FreePoly0,90.000000*%
%TD*%
%TA.AperFunction,SMDPad,CuDef*%
%ADD26RoundRect,0.225000X0.250000X-0.225000X0.250000X0.225000X-0.250000X0.225000X-0.250000X-0.225000X0*%
%TD*%
%TA.AperFunction,SMDPad,CuDef*%
%ADD27RoundRect,0.250000X0.312500X0.625000X-0.312500X0.625000X-0.312500X-0.625000X0.312500X-0.625000X0*%
%TD*%
%TA.AperFunction,SMDPad,CuDef*%
%ADD28RoundRect,0.225000X0.225000X0.250000X-0.225000X0.250000X-0.225000X-0.250000X0.225000X-0.250000X0*%
%TD*%
%TA.AperFunction,SMDPad,CuDef*%
%ADD29RoundRect,0.150000X0.512500X0.150000X-0.512500X0.150000X-0.512500X-0.150000X0.512500X-0.150000X0*%
%TD*%
%TA.AperFunction,ComponentPad*%
%ADD30C,1.400000*%
%TD*%
%TA.AperFunction,SMDPad,CuDef*%
%ADD31RoundRect,0.218750X0.256250X-0.218750X0.256250X0.218750X-0.256250X0.218750X-0.256250X-0.218750X0*%
%TD*%
%TA.AperFunction,ComponentPad*%
%ADD32C,1.600000*%
%TD*%
%TA.AperFunction,ComponentPad*%
%ADD33RoundRect,0.250000X-0.550000X-0.550000X0.550000X-0.550000X0.550000X0.550000X-0.550000X0.550000X0*%
%TD*%
%TA.AperFunction,SMDPad,CuDef*%
%ADD34RoundRect,0.225000X-0.375000X0.225000X-0.375000X-0.225000X0.375000X-0.225000X0.375000X0.225000X0*%
%TD*%
%TA.AperFunction,SMDPad,CuDef*%
%ADD35RoundRect,0.250000X-0.312500X-0.625000X0.312500X-0.625000X0.312500X0.625000X-0.312500X0.625000X0*%
%TD*%
%TA.AperFunction,SMDPad,CuDef*%
%ADD36RoundRect,0.250000X-0.650000X1.000000X-0.650000X-1.000000X0.650000X-1.000000X0.650000X1.000000X0*%
%TD*%
%TA.AperFunction,ComponentPad*%
%ADD37RoundRect,0.250000X0.550000X-0.550000X0.550000X0.550000X-0.550000X0.550000X-0.550000X-0.550000X0*%
%TD*%
%TA.AperFunction,ViaPad*%
%ADD38C,0.600000*%
%TD*%
%TA.AperFunction,Conductor*%
%ADD39C,0.500000*%
%TD*%
%TA.AperFunction,Conductor*%
%ADD40C,1.000000*%
%TD*%
%TA.AperFunction,Conductor*%
%ADD41C,0.440000*%
%TD*%
%TA.AperFunction,Conductor*%
%ADD42C,0.250000*%
%TD*%
G04 APERTURE END LIST*
D10*
%TO.P,,*%
%TO.N,*%
X176000000Y-103500000D03*
%TD*%
%TO.P,REF\u002A\u002A,*%
%TO.N,*%
X105000000Y-107250000D03*
%TD*%
%TO.P,REF\u002A\u002A,*%
%TO.N,*%
X105000000Y-77250000D03*
%TD*%
D11*
%TO.P,J5,1,Pin_1*%
%TO.N,+5V*%
X110500000Y-79600000D03*
D12*
%TO.P,J5,2,Pin_2*%
%TO.N,GND*%
X110500000Y-84680000D03*
%TO.P,J5,3,Pin_3*%
%TO.N,/LO_{IN}*%
X110500000Y-89760000D03*
%TO.P,J5,4,Pin_4*%
%TO.N,/LO_{PGOOD}*%
X110500000Y-94840000D03*
%TO.P,J5,5,Pin_5*%
%TO.N,/LO_{DESAT}*%
X110500000Y-99920000D03*
%TO.P,J5,6,Pin_6*%
%TO.N,/V_{OUT}*%
X110500000Y-105000000D03*
%TD*%
D13*
%TO.P,U4,1,V_{CC1}*%
%TO.N,5V_HV*%
X128400000Y-106945000D03*
%TO.P,U4,2,GND1*%
%TO.N,-VDC*%
X128400000Y-105675000D03*
%TO.P,U4,3,INA*%
%TO.N,Net-(D2-A)*%
X128400000Y-104405000D03*
%TO.P,U4,4,INB*%
%TO.N,Net-(D4-A)*%
X128400000Y-103135000D03*
%TO.P,U4,5,INC*%
%TO.N,Net-(D6-A)*%
X128400000Y-101865000D03*
%TO.P,U4,6,OUTD*%
%TO.N,Net-(U4-OUTD)*%
X128400000Y-100595000D03*
%TO.P,U4,7,EN1*%
%TO.N,5V_HV*%
X128400000Y-99325000D03*
%TO.P,U4,8,GND1*%
%TO.N,-VDC*%
X128400000Y-98055000D03*
%TO.P,U4,9,GND2*%
%TO.N,GND*%
X119100000Y-98055000D03*
%TO.P,U4,10,EN2*%
%TO.N,+5V*%
X119100000Y-99325000D03*
%TO.P,U4,11,IND*%
%TO.N,/LO_{IN}*%
X119100000Y-100595000D03*
%TO.P,U4,12,OUTC*%
%TO.N,/LO_{PGOOD}*%
X119100000Y-101865000D03*
%TO.P,U4,13,OUTB*%
%TO.N,/LO_{DESAT}*%
X119100000Y-103135000D03*
%TO.P,U4,14,OUTA*%
%TO.N,/V_{OUT}*%
X119100000Y-104405000D03*
%TO.P,U4,15,GND2*%
%TO.N,GND*%
X119100000Y-105675000D03*
%TO.P,U4,16,V_{CC2}*%
%TO.N,+5V*%
X119100000Y-106945000D03*
%TD*%
D14*
%TO.P,R2,2*%
%TO.N,Net-(U1-OUT_B)*%
X157037500Y-84250000D03*
%TO.P,R2,1*%
%TO.N,Net-(J2-Pin_1)*%
X162962500Y-84250000D03*
%TD*%
D15*
%TO.P,R9,1*%
%TO.N,Net-(D2-A)*%
X135100000Y-103187500D03*
%TO.P,R9,2*%
%TO.N,-VDC*%
X135100000Y-106112500D03*
%TD*%
%TO.P,R11,1*%
%TO.N,15V_HV*%
X135000000Y-89537500D03*
%TO.P,R11,2*%
%TO.N,Net-(D3-A)*%
X135000000Y-92462500D03*
%TD*%
D16*
%TO.P,C3,1*%
%TO.N,GND*%
X115225000Y-89750000D03*
%TO.P,C3,2*%
%TO.N,+5V*%
X116775000Y-89750000D03*
%TD*%
D17*
%TO.P,TR1,1*%
%TO.N,Net-(U3-D2)*%
X119907500Y-89960000D03*
%TO.P,TR1,2*%
%TO.N,+5V*%
X119907500Y-92500000D03*
%TO.P,TR1,3*%
%TO.N,Net-(U3-D1)*%
X119907500Y-95040000D03*
%TO.P,TR1,4*%
%TO.N,Net-(C5-Pad1)*%
X127592500Y-95040000D03*
%TO.P,TR1,5*%
%TO.N,unconnected-(TR1-Pad5)*%
X127592500Y-92500000D03*
%TO.P,TR1,6*%
%TO.N,-VDC*%
X127592500Y-89960000D03*
%TD*%
D18*
%TO.P,R15,1*%
%TO.N,Net-(J2-Pin_1)*%
X166500000Y-87037500D03*
%TO.P,R15,2*%
%TO.N,Net-(U5-OUT_A)*%
X166500000Y-92962500D03*
%TD*%
D15*
%TO.P,R13,1*%
%TO.N,Net-(D6-A)*%
X137500000Y-103187500D03*
%TO.P,R13,2*%
%TO.N,-VDC*%
X137500000Y-106112500D03*
%TD*%
D19*
%TO.P,C8,1*%
%TO.N,15V_HV*%
X133000000Y-89475000D03*
%TO.P,C8,2*%
%TO.N,Net-(D3-A)*%
X133000000Y-91025000D03*
%TD*%
D15*
%TO.P,R6,1*%
%TO.N,Net-(R5-Pad2)*%
X137300000Y-78437500D03*
%TO.P,R6,2*%
%TO.N,Net-(R6-Pad2)*%
X137300000Y-81362500D03*
%TD*%
D20*
%TO.P,D1,1,A*%
%TO.N,-VDC*%
X129600000Y-93250000D03*
%TO.P,D1,2,K*%
%TO.N,15V_HV*%
X130900000Y-93250000D03*
%TO.P,D1,3,COM*%
%TO.N,Net-(D1-COM)*%
X130250000Y-91250000D03*
%TD*%
D21*
%TO.P,R4,1*%
%TO.N,/LO_{IN}*%
X116500000Y-99962500D03*
%TO.P,R4,2*%
%TO.N,GND*%
X116500000Y-97037500D03*
%TD*%
D22*
%TO.P,J2,1,Pin_1*%
%TO.N,Net-(J2-Pin_1)*%
X166775000Y-80000000D03*
X167719581Y-77719581D03*
X167719581Y-82280419D03*
X170000000Y-76775000D03*
D23*
X170000000Y-80000000D03*
D22*
X170000000Y-83225000D03*
X172280419Y-77719581D03*
X172280419Y-82280419D03*
X173225000Y-80000000D03*
%TD*%
D24*
%TO.P,U2,1,OUT*%
%TO.N,5V_HV*%
X139750000Y-108337500D03*
D25*
%TO.P,U2,2,GND*%
%TO.N,-VDC*%
X141250000Y-108250000D03*
D24*
%TO.P,U2,3,IN*%
%TO.N,15V_HV*%
X142750000Y-108337500D03*
%TD*%
D26*
%TO.P,C4,1*%
%TO.N,+5V*%
X117000000Y-107275000D03*
%TO.P,C4,2*%
%TO.N,GND*%
X117000000Y-105725000D03*
%TD*%
D27*
%TO.P,R14,1*%
%TO.N,Net-(U1-IN_A)*%
X143712500Y-100500000D03*
%TO.P,R14,2*%
%TO.N,Net-(U4-OUTD)*%
X140787500Y-100500000D03*
%TD*%
D22*
%TO.P,J3,1,Pin_1*%
%TO.N,-VDC*%
X146775000Y-104000000D03*
X147719581Y-101719581D03*
X147719581Y-106280419D03*
X150000000Y-100775000D03*
D23*
X150000000Y-104000000D03*
D22*
X150000000Y-107225000D03*
X152280419Y-101719581D03*
X152280419Y-106280419D03*
X153225000Y-104000000D03*
%TD*%
D28*
%TO.P,C1,1*%
%TO.N,15V_HV*%
X153025000Y-87300000D03*
%TO.P,C1,2*%
%TO.N,-VDC*%
X151475000Y-87300000D03*
%TD*%
D16*
%TO.P,C5,1*%
%TO.N,Net-(C5-Pad1)*%
X129475000Y-95000000D03*
%TO.P,C5,2*%
%TO.N,Net-(D1-COM)*%
X131025000Y-95000000D03*
%TD*%
D26*
%TO.P,C6,1*%
%TO.N,5V_HV*%
X130500000Y-107275000D03*
%TO.P,C6,2*%
%TO.N,-VDC*%
X130500000Y-105725000D03*
%TD*%
D14*
%TO.P,R1,2*%
%TO.N,Net-(U1-OUT_A)*%
X157037500Y-78000000D03*
%TO.P,R1,1*%
%TO.N,Net-(J2-Pin_1)*%
X162962500Y-78000000D03*
%TD*%
D16*
%TO.P,C7,1*%
%TO.N,-VDC*%
X129475000Y-89500000D03*
%TO.P,C7,2*%
%TO.N,15V_HV*%
X131025000Y-89500000D03*
%TD*%
D29*
%TO.P,U3,1,D1*%
%TO.N,Net-(U3-D1)*%
X117637500Y-93450000D03*
%TO.P,U3,2,VCC*%
%TO.N,+5V*%
X117637500Y-92500000D03*
%TO.P,U3,3,D2*%
%TO.N,Net-(U3-D2)*%
X117637500Y-91550000D03*
%TO.P,U3,4,GND*%
%TO.N,GND*%
X115362500Y-91550000D03*
%TO.P,U3,5,EN*%
%TO.N,+5V*%
X115362500Y-92500000D03*
%TO.P,U3,6,CLK*%
X115362500Y-93450000D03*
%TD*%
D30*
%TO.P,J1,1,Pin_1*%
%TO.N,Net-(D3-K)*%
X125000000Y-76250000D03*
%TD*%
D31*
%TO.P,D5,1,K*%
%TO.N,Net-(D5-K)*%
X139750000Y-95787500D03*
%TO.P,D5,2,A*%
%TO.N,Net-(D5-A)*%
X139750000Y-94212500D03*
%TD*%
D32*
%TO.P,U1,8,EN_B*%
%TO.N,15V_HV*%
X154815000Y-77190000D03*
%TO.P,U1,7,OUT_A*%
%TO.N,Net-(U1-OUT_A)*%
X154815000Y-79730000D03*
%TO.P,U1,6,V+*%
%TO.N,15V_HV*%
X154815000Y-82270000D03*
%TO.P,U1,5,OUT_B*%
%TO.N,Net-(U1-OUT_B)*%
X154815000Y-84810000D03*
%TO.P,U1,4,IN_B*%
%TO.N,Net-(U1-IN_A)*%
X147195000Y-84810000D03*
%TO.P,U1,3,GND*%
%TO.N,-VDC*%
X147195000Y-82270000D03*
%TO.P,U1,2,IN_A*%
%TO.N,Net-(U1-IN_A)*%
X147195000Y-79730000D03*
D33*
%TO.P,U1,1,EN_A*%
%TO.N,15V_HV*%
X147195000Y-77190000D03*
%TD*%
D15*
%TO.P,R7,1*%
%TO.N,Net-(R6-Pad2)*%
X137300000Y-83137500D03*
%TO.P,R7,2*%
%TO.N,Net-(R7-Pad2)*%
X137300000Y-86062500D03*
%TD*%
D34*
%TO.P,D4,1,K*%
%TO.N,Net-(D3-A)*%
X132600000Y-98250000D03*
%TO.P,D4,2,A*%
%TO.N,Net-(D4-A)*%
X132600000Y-101550000D03*
%TD*%
D19*
%TO.P,C9,1*%
%TO.N,15V_HV*%
X174000000Y-96725000D03*
%TO.P,C9,2*%
%TO.N,-VDC*%
X174000000Y-98275000D03*
%TD*%
D35*
%TO.P,R5,1*%
%TO.N,Net-(R3-Pad2)*%
X132287500Y-77500000D03*
%TO.P,R5,2*%
%TO.N,Net-(R5-Pad2)*%
X135212500Y-77500000D03*
%TD*%
D34*
%TO.P,D6,1,K*%
%TO.N,Net-(D5-K)*%
X137500000Y-98250000D03*
%TO.P,D6,2,A*%
%TO.N,Net-(D6-A)*%
X137500000Y-101550000D03*
%TD*%
D18*
%TO.P,R16,1*%
%TO.N,Net-(J2-Pin_1)*%
X172500000Y-87037500D03*
%TO.P,R16,2*%
%TO.N,Net-(U5-OUT_B)*%
X172500000Y-92962500D03*
%TD*%
D36*
%TO.P,D3,1,K*%
%TO.N,Net-(D3-K)*%
X124500000Y-79500000D03*
%TO.P,D3,2,A*%
%TO.N,Net-(D3-A)*%
X124500000Y-83500000D03*
%TD*%
D35*
%TO.P,R3,1*%
%TO.N,Net-(D3-K)*%
X127537500Y-77500000D03*
%TO.P,R3,2*%
%TO.N,Net-(R3-Pad2)*%
X130462500Y-77500000D03*
%TD*%
D15*
%TO.P,R8,1*%
%TO.N,Net-(R7-Pad2)*%
X137300000Y-87837500D03*
%TO.P,R8,2*%
%TO.N,Net-(D2-K)*%
X137300000Y-90762500D03*
%TD*%
D21*
%TO.P,R12,1*%
%TO.N,Net-(D5-A)*%
X139750000Y-92212500D03*
%TO.P,R12,2*%
%TO.N,15V_HV*%
X139750000Y-89287500D03*
%TD*%
D37*
%TO.P,U5,1,EN_A*%
%TO.N,15V_HV*%
X163990000Y-102805000D03*
D32*
%TO.P,U5,2,IN_A*%
%TO.N,Net-(U1-IN_A)*%
X166530000Y-102805000D03*
%TO.P,U5,3,GND*%
%TO.N,-VDC*%
X169070000Y-102805000D03*
%TO.P,U5,4,IN_B*%
%TO.N,Net-(U1-IN_A)*%
X171610000Y-102805000D03*
%TO.P,U5,5,OUT_B*%
%TO.N,Net-(U5-OUT_B)*%
X171610000Y-95185000D03*
%TO.P,U5,6,V+*%
%TO.N,15V_HV*%
X169070000Y-95185000D03*
%TO.P,U5,7,OUT_A*%
%TO.N,Net-(U5-OUT_A)*%
X166530000Y-95185000D03*
%TO.P,U5,8,EN_B*%
%TO.N,15V_HV*%
X163990000Y-95185000D03*
%TD*%
D15*
%TO.P,R10,1*%
%TO.N,Net-(D4-A)*%
X132600000Y-103187500D03*
%TO.P,R10,2*%
%TO.N,-VDC*%
X132600000Y-106112500D03*
%TD*%
D34*
%TO.P,D2,1,K*%
%TO.N,Net-(D2-K)*%
X135100000Y-98250000D03*
%TO.P,D2,2,A*%
%TO.N,Net-(D2-A)*%
X135100000Y-101550000D03*
%TD*%
D10*
%TO.P,REF\u002A\u002A,*%
%TO.N,*%
X176000000Y-81500000D03*
%TD*%
D38*
%TO.N,-VDC*%
X150250000Y-87250000D03*
X128750000Y-90750000D03*
X140000000Y-104000000D03*
X136250000Y-107000000D03*
X131400000Y-105400000D03*
X140750000Y-104000000D03*
X167500000Y-106000000D03*
X130800000Y-98000000D03*
X142500000Y-107000000D03*
X140000000Y-106250000D03*
X129500000Y-92250000D03*
X133900000Y-107000000D03*
X131337500Y-106112500D03*
X167500000Y-104500000D03*
X165500000Y-106000000D03*
X130000000Y-98000000D03*
X162750000Y-98500000D03*
X150250000Y-88250000D03*
X142500000Y-106250000D03*
X133900000Y-105500000D03*
X142500000Y-104000000D03*
X141750000Y-104000000D03*
X162750000Y-99250000D03*
X167500000Y-107500000D03*
X133850000Y-106250000D03*
X128000000Y-97250000D03*
X128750000Y-88500000D03*
X151000000Y-88250000D03*
X165250000Y-100750000D03*
X128000000Y-88500000D03*
X140000000Y-107000000D03*
X151750000Y-88250000D03*
X151000000Y-86500000D03*
X129500000Y-91500000D03*
X151750000Y-86500000D03*
X165500000Y-105250000D03*
X165250000Y-101500000D03*
X130800000Y-97200000D03*
X167500000Y-106750000D03*
X162750000Y-100750000D03*
X129750000Y-105675000D03*
X128000000Y-87750000D03*
X128750000Y-89960000D03*
X150250000Y-86500000D03*
X162750000Y-101500000D03*
X167500000Y-105250000D03*
X142500000Y-104750000D03*
X136250000Y-105500000D03*
X142500000Y-105500000D03*
X136250000Y-106250000D03*
X165500000Y-104500000D03*
X165250000Y-98500000D03*
X140000000Y-104750000D03*
X128750000Y-89250000D03*
X165250000Y-99250000D03*
X162750000Y-100000000D03*
X165250000Y-100000000D03*
X140000000Y-105500000D03*
X130000000Y-97250000D03*
X165500000Y-107500000D03*
X129500000Y-90750000D03*
X129000000Y-97250000D03*
X165500000Y-106750000D03*
%TO.N,5V_HV*%
X129700000Y-106945000D03*
X129750000Y-99325000D03*
%TO.N,GND*%
X116000000Y-105500000D03*
X119000000Y-97000000D03*
X115000000Y-97000000D03*
X115250000Y-105500000D03*
X117750000Y-97000000D03*
X116500000Y-98000000D03*
X116500000Y-96000000D03*
%TO.N,+5V*%
X117750000Y-106945000D03*
X117500671Y-98998998D03*
%TO.N,Net-(D3-A)*%
X134143750Y-91606250D03*
X133750000Y-88250000D03*
%TD*%
D39*
%TO.N,Net-(U1-IN_A)*%
X143712500Y-100500000D02*
X143712500Y-89537500D01*
X143712500Y-89537500D02*
X145750000Y-87500000D01*
X145750000Y-87500000D02*
X145750000Y-81250000D01*
X145750000Y-81250000D02*
X147195000Y-79805000D01*
X147195000Y-79805000D02*
X147195000Y-79730000D01*
X147195000Y-84810000D02*
X145750000Y-84810000D01*
X147195000Y-84310000D02*
X147195000Y-84810000D01*
D40*
%TO.N,15V_HV*%
X142000000Y-89500000D02*
X144500000Y-87000000D01*
X144500000Y-87000000D02*
X144500000Y-79385000D01*
X144500000Y-79385000D02*
X146695000Y-77190000D01*
X146695000Y-77190000D02*
X147195000Y-77190000D01*
D39*
X142699000Y-101422292D02*
X143251000Y-101974292D01*
D40*
X131025000Y-89500000D02*
X142000000Y-89500000D01*
X173360204Y-97124000D02*
X173601000Y-97124000D01*
D39*
X142000000Y-89500000D02*
X142699000Y-90199000D01*
D40*
X151400000Y-77190000D02*
X153000000Y-77190000D01*
X169000000Y-96750000D02*
X169000000Y-97250000D01*
X161500000Y-97250000D02*
X173234204Y-97250000D01*
X163990000Y-95185000D02*
X163990000Y-102805000D01*
X151400000Y-77190000D02*
X154815000Y-77190000D01*
X173601000Y-97124000D02*
X174000000Y-96725000D01*
X154815000Y-82300000D02*
X153000000Y-82300000D01*
D39*
X130926000Y-91724026D02*
X130926000Y-89599000D01*
D40*
X153025000Y-85200000D02*
X153025000Y-88775000D01*
D39*
X143251000Y-107311075D02*
X142811075Y-107751000D01*
D40*
X173234204Y-97250000D02*
X173360204Y-97124000D01*
X153000000Y-85675000D02*
X153025000Y-85700000D01*
D39*
X130921000Y-93021000D02*
X130921000Y-91729026D01*
X142811075Y-107751000D02*
X142750000Y-107751000D01*
X142750000Y-107751000D02*
X142750000Y-108337500D01*
D40*
X154815000Y-82270000D02*
X154815000Y-82300000D01*
X169070000Y-95185000D02*
X169070000Y-96680000D01*
D39*
X130926000Y-89599000D02*
X131025000Y-89500000D01*
X143251000Y-101974292D02*
X143251000Y-107311075D01*
D40*
X153025000Y-88775000D02*
X161500000Y-97250000D01*
D39*
X130921000Y-91729026D02*
X130926000Y-91724026D01*
D40*
X147195000Y-77190000D02*
X151400000Y-77190000D01*
D39*
X142699000Y-90199000D02*
X142699000Y-101422292D01*
D40*
X153000000Y-77190000D02*
X153000000Y-85675000D01*
X169070000Y-96680000D02*
X169000000Y-96750000D01*
D39*
%TO.N,-VDC*%
X141801000Y-99577708D02*
X141223292Y-99000000D01*
X129475000Y-93146000D02*
X129579000Y-93250000D01*
X141750000Y-104000000D02*
X141801000Y-103949000D01*
X139550000Y-99200000D02*
X131200000Y-99200000D01*
X139750000Y-99000000D02*
X139550000Y-99200000D01*
X141801000Y-103949000D02*
X141801000Y-99577708D01*
X130450000Y-105675000D02*
X130500000Y-105725000D01*
X141223292Y-99000000D02*
X139750000Y-99000000D01*
X129475000Y-89500000D02*
X129475000Y-93146000D01*
X131200000Y-99200000D02*
X130000000Y-98000000D01*
%TO.N,5V_HV*%
X131562500Y-108337500D02*
X130500000Y-107275000D01*
X130170000Y-106945000D02*
X130500000Y-107275000D01*
X128400000Y-106945000D02*
X129700000Y-106945000D01*
X129700000Y-106945000D02*
X130170000Y-106945000D01*
X129750000Y-99325000D02*
X128400000Y-99325000D01*
X139750000Y-108337500D02*
X131562500Y-108337500D01*
%TO.N,GND*%
X119100000Y-105675000D02*
X117050000Y-105675000D01*
X119100000Y-98055000D02*
X119100000Y-97100000D01*
X115362500Y-89887500D02*
X115225000Y-89750000D01*
X117050000Y-105675000D02*
X117000000Y-105725000D01*
X115362500Y-91550000D02*
X115362500Y-89887500D01*
X119100000Y-97100000D02*
X119000000Y-97000000D01*
%TO.N,+5V*%
X116500000Y-89725000D02*
X116525000Y-89750000D01*
X117826673Y-99325000D02*
X119100000Y-99325000D01*
X106000000Y-106000000D02*
X106000000Y-82000000D01*
X109000000Y-109000000D02*
X106000000Y-106000000D01*
X116500000Y-92500000D02*
X117637500Y-92500000D01*
X117750000Y-106945000D02*
X117330000Y-106945000D01*
X117330000Y-106945000D02*
X117000000Y-107275000D01*
X119100000Y-106945000D02*
X117750000Y-106945000D01*
X116500000Y-90025000D02*
X116500000Y-92500000D01*
X115362500Y-92500000D02*
X115362500Y-93450000D01*
X116775000Y-89750000D02*
X116500000Y-90025000D01*
X115275000Y-109000000D02*
X109000000Y-109000000D01*
X117387500Y-92500000D02*
X119907500Y-92500000D01*
X115362500Y-92500000D02*
X116500000Y-92500000D01*
X117000000Y-107275000D02*
X115275000Y-109000000D01*
X117500671Y-98998998D02*
X117826673Y-99325000D01*
X108400000Y-79600000D02*
X110500000Y-79600000D01*
X112600000Y-79600000D02*
X116500000Y-83500000D01*
X110500000Y-79600000D02*
X112600000Y-79600000D01*
X106000000Y-82000000D02*
X108400000Y-79600000D01*
X116500000Y-83500000D02*
X116500000Y-89725000D01*
D41*
%TO.N,Net-(D1-COM)*%
X130250000Y-94225000D02*
X130250000Y-91250000D01*
D39*
X131025000Y-95000000D02*
X130250000Y-94225000D01*
%TO.N,Net-(C5-Pad1)*%
X127592500Y-95040000D02*
X129435000Y-95040000D01*
X129435000Y-95040000D02*
X129475000Y-95000000D01*
%TO.N,Net-(D3-A)*%
X132600000Y-94862500D02*
X132600000Y-98250000D01*
X131250000Y-83500000D02*
X124500000Y-83500000D01*
X133750000Y-88250000D02*
X133750000Y-86000000D01*
X134143750Y-91606250D02*
X135000000Y-92462500D01*
X133562500Y-91025000D02*
X134143750Y-91606250D01*
X133750000Y-86000000D02*
X131250000Y-83500000D01*
X135000000Y-92462500D02*
X132600000Y-94862500D01*
X133000000Y-91025000D02*
X133562500Y-91025000D01*
%TO.N,Net-(D2-A)*%
X128400000Y-104405000D02*
X133882500Y-104405000D01*
X135100000Y-103187500D02*
X135100000Y-101550000D01*
X133882500Y-104405000D02*
X135100000Y-103187500D01*
%TO.N,Net-(D2-K)*%
X137300000Y-94950000D02*
X135100000Y-97150000D01*
X135100000Y-97150000D02*
X135100000Y-98250000D01*
X137300000Y-90762500D02*
X137300000Y-94950000D01*
%TO.N,Net-(D3-K)*%
X126250000Y-76250000D02*
X127500000Y-77500000D01*
X127500000Y-77500000D02*
X127537500Y-77500000D01*
X125000000Y-78550000D02*
X125000000Y-76250000D01*
X125000000Y-76250000D02*
X126250000Y-76250000D01*
X124500000Y-79050000D02*
X125000000Y-78550000D01*
%TO.N,Net-(D4-A)*%
X128400000Y-103135000D02*
X132097500Y-103135000D01*
X132600000Y-101550000D02*
X132600000Y-103187500D01*
%TO.N,Net-(D5-A)*%
X139750000Y-94212500D02*
X139750000Y-92212500D01*
%TO.N,Net-(D5-K)*%
X137500000Y-98250000D02*
X139750000Y-96000000D01*
X139750000Y-96000000D02*
X139750000Y-95787500D01*
%TO.N,Net-(D6-A)*%
X137500000Y-101550000D02*
X136599000Y-100649000D01*
X137500000Y-101550000D02*
X137500000Y-103187500D01*
X131627000Y-100649000D02*
X130411000Y-101865000D01*
X136599000Y-100649000D02*
X131627000Y-100649000D01*
X130411000Y-101865000D02*
X128400000Y-101865000D01*
%TO.N,/LO_{IN}*%
X117132500Y-100595000D02*
X119100000Y-100595000D01*
X113000000Y-92260000D02*
X113000000Y-96500000D01*
X110500000Y-89760000D02*
X113000000Y-92260000D01*
X116500000Y-99962500D02*
X117132500Y-100595000D01*
X113000000Y-96500000D02*
X116462500Y-99962500D01*
X116462500Y-99962500D02*
X116500000Y-99962500D01*
%TO.N,/V_{OUT}*%
X110500000Y-105000000D02*
X111095000Y-104405000D01*
X111095000Y-104405000D02*
X119100000Y-104405000D01*
%TO.N,/LO_{PGOOD}*%
X110500000Y-96130000D02*
X116235000Y-101865000D01*
X110500000Y-94840000D02*
X110500000Y-96130000D01*
D42*
X110500000Y-94840000D02*
X110500000Y-96050000D01*
D39*
X116235000Y-101865000D02*
X119100000Y-101865000D01*
%TO.N,/LO_{DESAT}*%
X110500000Y-99920000D02*
X113715000Y-103135000D01*
X113715000Y-103135000D02*
X119100000Y-103135000D01*
D40*
%TO.N,Net-(U1-OUT_B)*%
X154815000Y-84810000D02*
X156477500Y-84810000D01*
X156477500Y-84810000D02*
X157037500Y-84250000D01*
D39*
%TO.N,Net-(R3-Pad2)*%
X130462500Y-77500000D02*
X132287500Y-77500000D01*
%TO.N,Net-(R5-Pad2)*%
X137300000Y-78437500D02*
X136362500Y-77500000D01*
X136362500Y-77500000D02*
X135212500Y-77500000D01*
%TO.N,Net-(R6-Pad2)*%
X137300000Y-83137500D02*
X137300000Y-81362500D01*
%TO.N,Net-(R7-Pad2)*%
X137300000Y-86062500D02*
X137300000Y-87837500D01*
%TO.N,Net-(U4-OUTD)*%
X128400000Y-100595000D02*
X129655000Y-100595000D01*
X129655000Y-100595000D02*
X130349000Y-99901000D01*
X138375000Y-100500000D02*
X140787500Y-100500000D01*
X137776000Y-99901000D02*
X138375000Y-100500000D01*
X130349000Y-99901000D02*
X137776000Y-99901000D01*
%TO.N,Net-(U1-IN_A)*%
X144250000Y-101037500D02*
X144250000Y-105500000D01*
X171610000Y-106640000D02*
X171610000Y-102805000D01*
X169050000Y-109200000D02*
X171610000Y-106640000D01*
X166500000Y-102835000D02*
X166500000Y-109200000D01*
X143712500Y-100500000D02*
X144250000Y-101037500D01*
X147950000Y-109200000D02*
X169050000Y-109200000D01*
X166530000Y-102805000D02*
X166500000Y-102835000D01*
X144250000Y-105500000D02*
X147950000Y-109200000D01*
D40*
%TO.N,Net-(U5-OUT_A)*%
X166530000Y-92992500D02*
X166500000Y-92962500D01*
X166530000Y-95185000D02*
X166530000Y-92992500D01*
%TO.N,Net-(U5-OUT_B)*%
X171610000Y-95185000D02*
X171610000Y-93852500D01*
X171610000Y-93852500D02*
X172500000Y-92962500D01*
D39*
%TO.N,Net-(U3-D1)*%
X117637500Y-93450000D02*
X118317500Y-93450000D01*
X118317500Y-93450000D02*
X119907500Y-95040000D01*
%TO.N,Net-(U3-D2)*%
X118317500Y-91550000D02*
X119907500Y-89960000D01*
X117637500Y-91550000D02*
X118317500Y-91550000D01*
D40*
%TO.N,Net-(U1-OUT_A)*%
X154815000Y-79730000D02*
X154815000Y-79722500D01*
X154815000Y-79722500D02*
X156537500Y-78000000D01*
X156537500Y-78000000D02*
X157037500Y-78000000D01*
%TD*%
%TA.AperFunction,Conductor*%
%TO.N,Net-(J2-Pin_1)*%
G36*
X170002702Y-75500617D02*
G01*
X170386771Y-75517386D01*
X170397506Y-75518326D01*
X170775971Y-75568152D01*
X170786597Y-75570025D01*
X171159284Y-75652648D01*
X171169710Y-75655442D01*
X171533765Y-75770227D01*
X171543911Y-75773920D01*
X171896578Y-75920000D01*
X171906369Y-75924566D01*
X172244942Y-76100816D01*
X172254310Y-76106224D01*
X172576244Y-76311318D01*
X172585105Y-76317523D01*
X172887930Y-76549889D01*
X172896217Y-76556843D01*
X173177635Y-76814715D01*
X173185284Y-76822364D01*
X173443156Y-77103782D01*
X173450110Y-77112069D01*
X173682476Y-77414894D01*
X173688681Y-77423755D01*
X173893775Y-77745689D01*
X173899183Y-77755057D01*
X174075430Y-78093623D01*
X174080002Y-78103427D01*
X174226075Y-78456078D01*
X174229775Y-78466244D01*
X174344554Y-78830278D01*
X174347354Y-78840727D01*
X174429971Y-79213389D01*
X174431849Y-79224042D01*
X174481671Y-79602473D01*
X174482614Y-79613249D01*
X174499382Y-79997297D01*
X174499500Y-80002706D01*
X174499500Y-80092710D01*
X174533571Y-80274973D01*
X174533572Y-80274975D01*
X174600551Y-80447869D01*
X174600553Y-80447875D01*
X174698161Y-80605517D01*
X174698163Y-80605519D01*
X174805134Y-80722861D01*
X174823080Y-80742546D01*
X174950728Y-80838941D01*
X174992362Y-80895047D01*
X175000000Y-80937893D01*
X175000000Y-81398945D01*
X174999500Y-81401459D01*
X174999500Y-81598541D01*
X175000000Y-81601054D01*
X175000000Y-87995572D01*
X174999684Y-88004418D01*
X174980275Y-88275785D01*
X174977757Y-88293297D01*
X174920872Y-88554794D01*
X174915888Y-88571770D01*
X174822361Y-88822524D01*
X174815011Y-88838617D01*
X174686758Y-89073496D01*
X174677193Y-89088380D01*
X174516811Y-89302624D01*
X174505225Y-89315994D01*
X174315994Y-89505225D01*
X174302624Y-89516811D01*
X174088380Y-89677193D01*
X174073496Y-89686758D01*
X173838617Y-89815011D01*
X173822524Y-89822361D01*
X173571770Y-89915888D01*
X173554794Y-89920872D01*
X173293297Y-89977757D01*
X173275785Y-89980275D01*
X173004418Y-89999684D01*
X172995572Y-90000000D01*
X162004428Y-90000000D01*
X161995582Y-89999684D01*
X161724214Y-89980275D01*
X161706702Y-89977757D01*
X161445205Y-89920872D01*
X161428229Y-89915888D01*
X161177475Y-89822361D01*
X161161382Y-89815011D01*
X160926503Y-89686758D01*
X160911619Y-89677193D01*
X160697375Y-89516811D01*
X160684005Y-89505225D01*
X160494774Y-89315994D01*
X160483188Y-89302624D01*
X160322802Y-89088375D01*
X160313244Y-89073501D01*
X160184987Y-88838616D01*
X160177638Y-88822524D01*
X160084108Y-88571762D01*
X160079129Y-88554803D01*
X160022241Y-88293291D01*
X160019724Y-88275785D01*
X160000316Y-88004418D01*
X160000000Y-87995572D01*
X160000000Y-77004427D01*
X160000316Y-76995581D01*
X160008021Y-76887852D01*
X160019724Y-76724207D01*
X160022240Y-76706710D01*
X160079130Y-76445192D01*
X160084107Y-76428241D01*
X160177640Y-76177470D01*
X160184985Y-76161388D01*
X160313248Y-75926491D01*
X160322798Y-75911630D01*
X160483195Y-75697366D01*
X160494761Y-75684018D01*
X160641963Y-75536816D01*
X160703284Y-75503334D01*
X160729642Y-75500500D01*
X169934108Y-75500500D01*
X169997294Y-75500500D01*
X170002702Y-75500617D01*
G37*
%TD.AperFunction*%
%TD*%
%TA.AperFunction,Conductor*%
%TO.N,GND*%
G36*
X108296973Y-80838661D02*
G01*
X108323333Y-80840547D01*
X108332386Y-80846365D01*
X108339426Y-80847897D01*
X108367680Y-80869048D01*
X108481344Y-80982712D01*
X108630665Y-81074814D01*
X108797202Y-81129999D01*
X108899990Y-81140500D01*
X108899995Y-81140500D01*
X112100005Y-81140500D01*
X112100010Y-81140500D01*
X112202798Y-81129999D01*
X112369335Y-81074814D01*
X112518656Y-80982712D01*
X112632319Y-80869049D01*
X112693642Y-80835564D01*
X112763334Y-80840548D01*
X112807681Y-80869049D01*
X115713181Y-83774549D01*
X115746666Y-83835872D01*
X115749500Y-83862230D01*
X115749500Y-88664305D01*
X115729815Y-88731344D01*
X115677011Y-88777099D01*
X115607853Y-88787043D01*
X115599551Y-88785560D01*
X115597607Y-88785144D01*
X115498322Y-88775000D01*
X115475000Y-88775000D01*
X115475000Y-90620000D01*
X115488500Y-90620000D01*
X115555539Y-90639685D01*
X115601294Y-90692489D01*
X115612500Y-90744000D01*
X115612500Y-91426000D01*
X115592815Y-91493039D01*
X115540011Y-91538794D01*
X115488500Y-91550000D01*
X115362500Y-91550000D01*
X115362500Y-91575500D01*
X115342815Y-91642539D01*
X115290011Y-91688294D01*
X115238500Y-91699500D01*
X114784298Y-91699500D01*
X114747432Y-91702401D01*
X114747426Y-91702402D01*
X114589606Y-91748254D01*
X114589603Y-91748255D01*
X114531306Y-91782732D01*
X114468185Y-91800000D01*
X114202705Y-91800000D01*
X114202704Y-91800001D01*
X114202899Y-91802488D01*
X114202900Y-91802494D01*
X114248716Y-91960193D01*
X114248720Y-91960203D01*
X114249427Y-91961398D01*
X114249695Y-91962454D01*
X114251816Y-91967356D01*
X114251024Y-91967698D01*
X114266603Y-92029123D01*
X114250993Y-92082284D01*
X114251355Y-92082441D01*
X114250087Y-92085369D01*
X114249427Y-92087620D01*
X114248259Y-92089594D01*
X114248254Y-92089607D01*
X114202402Y-92247426D01*
X114202401Y-92247432D01*
X114199500Y-92284298D01*
X114199500Y-92715701D01*
X114202401Y-92752567D01*
X114202402Y-92752573D01*
X114248254Y-92910393D01*
X114248254Y-92910394D01*
X114248255Y-92910396D01*
X114248256Y-92910398D01*
X114249133Y-92911881D01*
X114249466Y-92913195D01*
X114251353Y-92917554D01*
X114250649Y-92917858D01*
X114266315Y-92979604D01*
X114250861Y-93032233D01*
X114251353Y-93032446D01*
X114249630Y-93036426D01*
X114249133Y-93038118D01*
X114248506Y-93039177D01*
X114248254Y-93039605D01*
X114248254Y-93039606D01*
X114202402Y-93197426D01*
X114202401Y-93197432D01*
X114199500Y-93234298D01*
X114199500Y-93665701D01*
X114202401Y-93702567D01*
X114202402Y-93702573D01*
X114248254Y-93860393D01*
X114248255Y-93860396D01*
X114331732Y-94001550D01*
X114331918Y-94001864D01*
X114331923Y-94001870D01*
X114448129Y-94118076D01*
X114448133Y-94118079D01*
X114448135Y-94118081D01*
X114589602Y-94201744D01*
X114631224Y-94213836D01*
X114747426Y-94247597D01*
X114747429Y-94247597D01*
X114747431Y-94247598D01*
X114784306Y-94250500D01*
X114784314Y-94250500D01*
X115940686Y-94250500D01*
X115940694Y-94250500D01*
X115977569Y-94247598D01*
X115977571Y-94247597D01*
X115977573Y-94247597D01*
X116019191Y-94235505D01*
X116135398Y-94201744D01*
X116276865Y-94118081D01*
X116393081Y-94001865D01*
X116393267Y-94001549D01*
X116393477Y-94001353D01*
X116397861Y-93995702D01*
X116398772Y-93996409D01*
X116444336Y-93953866D01*
X116513077Y-93941362D01*
X116577667Y-93968006D01*
X116601855Y-93995921D01*
X116602139Y-93995702D01*
X116606179Y-94000911D01*
X116606732Y-94001548D01*
X116606919Y-94001865D01*
X116606921Y-94001867D01*
X116606923Y-94001870D01*
X116723129Y-94118076D01*
X116723133Y-94118079D01*
X116723135Y-94118081D01*
X116864602Y-94201744D01*
X116906224Y-94213836D01*
X117022426Y-94247597D01*
X117022429Y-94247597D01*
X117022431Y-94247598D01*
X117059306Y-94250500D01*
X118005270Y-94250500D01*
X118072309Y-94270185D01*
X118092951Y-94286819D01*
X118578181Y-94772048D01*
X118611666Y-94833371D01*
X118614500Y-94859729D01*
X118614500Y-95977870D01*
X118614501Y-95977876D01*
X118620908Y-96037483D01*
X118671202Y-96172328D01*
X118671206Y-96172335D01*
X118757452Y-96287544D01*
X118757455Y-96287547D01*
X118872664Y-96373793D01*
X118872671Y-96373797D01*
X119007517Y-96424091D01*
X119007516Y-96424091D01*
X119014444Y-96424835D01*
X119067127Y-96430500D01*
X119876001Y-96430499D01*
X119943039Y-96450183D01*
X119988794Y-96502987D01*
X120000000Y-96554499D01*
X120000000Y-97131000D01*
X119980315Y-97198039D01*
X119927511Y-97243794D01*
X119876000Y-97255000D01*
X119350000Y-97255000D01*
X119350000Y-97931000D01*
X119330315Y-97998039D01*
X119277511Y-98043794D01*
X119226000Y-98055000D01*
X118974000Y-98055000D01*
X118906961Y-98035315D01*
X118861206Y-97982511D01*
X118850000Y-97931000D01*
X118850000Y-97255000D01*
X118159350Y-97255000D01*
X118122510Y-97257899D01*
X118122504Y-97257900D01*
X117978204Y-97299824D01*
X117908334Y-97299625D01*
X117887965Y-97287500D01*
X116750000Y-97287500D01*
X116750000Y-98099999D01*
X116996482Y-98099999D01*
X117063521Y-98119684D01*
X117109276Y-98172488D01*
X117119220Y-98241646D01*
X117090195Y-98305202D01*
X117065373Y-98327101D01*
X116990382Y-98377208D01*
X116990378Y-98377211D01*
X116878884Y-98488705D01*
X116878881Y-98488709D01*
X116791280Y-98619812D01*
X116791273Y-98619825D01*
X116730935Y-98765496D01*
X116730934Y-98765500D01*
X116730934Y-98765501D01*
X116724132Y-98799692D01*
X116709417Y-98827824D01*
X116696229Y-98856703D01*
X116693340Y-98858559D01*
X116691749Y-98861602D01*
X116664157Y-98877313D01*
X116637451Y-98894477D01*
X116632857Y-98895137D01*
X116631034Y-98896176D01*
X116602516Y-98899500D01*
X116512229Y-98899500D01*
X116445190Y-98879815D01*
X116424548Y-98863181D01*
X115873048Y-98311680D01*
X115839563Y-98250357D01*
X115844547Y-98180665D01*
X115886419Y-98124732D01*
X115951883Y-98100315D01*
X115960729Y-98099999D01*
X116249999Y-98099999D01*
X116250000Y-98099998D01*
X116250000Y-97287500D01*
X115125001Y-97287500D01*
X115115344Y-97297156D01*
X115105316Y-97331310D01*
X115052512Y-97377065D01*
X114983354Y-97387009D01*
X114919798Y-97357984D01*
X114913320Y-97351952D01*
X114236381Y-96675013D01*
X115125000Y-96675013D01*
X115125000Y-96787500D01*
X116250000Y-96787500D01*
X116750000Y-96787500D01*
X117874999Y-96787500D01*
X117874999Y-96675028D01*
X117874998Y-96675013D01*
X117864505Y-96572302D01*
X117809358Y-96405880D01*
X117809356Y-96405875D01*
X117717315Y-96256654D01*
X117593345Y-96132684D01*
X117444124Y-96040643D01*
X117444119Y-96040641D01*
X117277697Y-95985494D01*
X117277690Y-95985493D01*
X117174986Y-95975000D01*
X116750000Y-95975000D01*
X116750000Y-96787500D01*
X116250000Y-96787500D01*
X116250000Y-95975000D01*
X115825028Y-95975000D01*
X115825012Y-95975001D01*
X115722302Y-95985494D01*
X115555880Y-96040641D01*
X115555875Y-96040643D01*
X115406654Y-96132684D01*
X115282684Y-96256654D01*
X115190643Y-96405875D01*
X115190641Y-96405880D01*
X115135494Y-96572302D01*
X115135493Y-96572309D01*
X115125000Y-96675013D01*
X114236381Y-96675013D01*
X113786819Y-96225451D01*
X113753334Y-96164128D01*
X113750500Y-96137770D01*
X113750500Y-92186079D01*
X113721659Y-92041092D01*
X113721658Y-92041091D01*
X113721658Y-92041087D01*
X113665084Y-91904505D01*
X113596973Y-91802569D01*
X113582952Y-91781584D01*
X113101366Y-91299998D01*
X114202704Y-91299998D01*
X114202705Y-91300000D01*
X115112500Y-91300000D01*
X115112500Y-90855000D01*
X115099000Y-90855000D01*
X115031961Y-90835315D01*
X114986206Y-90782511D01*
X114975000Y-90731000D01*
X114975000Y-90000000D01*
X114275001Y-90000000D01*
X114275001Y-90048322D01*
X114285144Y-90147607D01*
X114338452Y-90308481D01*
X114338457Y-90308492D01*
X114427424Y-90452728D01*
X114427427Y-90452732D01*
X114547268Y-90572573D01*
X114580539Y-90593095D01*
X114627263Y-90645043D01*
X114638484Y-90714006D01*
X114610641Y-90778088D01*
X114578562Y-90805365D01*
X114448447Y-90882314D01*
X114448438Y-90882321D01*
X114332321Y-90998438D01*
X114332314Y-90998447D01*
X114248718Y-91139801D01*
X114202899Y-91297513D01*
X114202704Y-91299998D01*
X113101366Y-91299998D01*
X112564581Y-90763213D01*
X112531096Y-90701890D01*
X112536080Y-90632198D01*
X112551945Y-90602645D01*
X112577553Y-90567399D01*
X112577554Y-90567398D01*
X112687638Y-90351347D01*
X112762568Y-90120735D01*
X112782110Y-89997347D01*
X112800500Y-89881245D01*
X112800500Y-89638754D01*
X112773443Y-89467926D01*
X112770869Y-89451677D01*
X114275000Y-89451677D01*
X114275000Y-89500000D01*
X114975000Y-89500000D01*
X114975000Y-88774999D01*
X114951693Y-88775000D01*
X114951674Y-88775001D01*
X114852392Y-88785144D01*
X114691518Y-88838452D01*
X114691507Y-88838457D01*
X114547271Y-88927424D01*
X114547267Y-88927427D01*
X114427427Y-89047267D01*
X114427424Y-89047271D01*
X114338457Y-89191507D01*
X114338452Y-89191518D01*
X114285144Y-89352393D01*
X114275000Y-89451677D01*
X112770869Y-89451677D01*
X112770558Y-89449712D01*
X112762568Y-89399265D01*
X112725103Y-89283959D01*
X112687639Y-89168655D01*
X112625788Y-89047267D01*
X112577554Y-88952602D01*
X112494620Y-88838452D01*
X112435033Y-88756437D01*
X112435029Y-88756432D01*
X112263567Y-88584970D01*
X112263562Y-88584966D01*
X112067401Y-88442448D01*
X112067400Y-88442447D01*
X112067398Y-88442446D01*
X111959372Y-88387404D01*
X111851344Y-88332360D01*
X111620736Y-88257432D01*
X111381245Y-88219500D01*
X111381240Y-88219500D01*
X109618760Y-88219500D01*
X109618755Y-88219500D01*
X109379263Y-88257432D01*
X109148655Y-88332360D01*
X108932598Y-88442448D01*
X108736437Y-88584966D01*
X108736432Y-88584970D01*
X108564970Y-88756432D01*
X108564966Y-88756437D01*
X108422448Y-88952598D01*
X108312360Y-89168655D01*
X108237432Y-89399263D01*
X108199500Y-89638754D01*
X108199500Y-89881245D01*
X108237432Y-90120736D01*
X108312360Y-90351344D01*
X108312362Y-90351347D01*
X108410675Y-90544297D01*
X108422448Y-90567401D01*
X108564966Y-90763562D01*
X108564970Y-90763567D01*
X108736432Y-90935029D01*
X108736437Y-90935033D01*
X108823720Y-90998447D01*
X108932602Y-91077554D01*
X109148653Y-91187638D01*
X109148655Y-91187639D01*
X109263959Y-91225103D01*
X109379265Y-91262568D01*
X109490186Y-91280136D01*
X109618755Y-91300500D01*
X109618760Y-91300500D01*
X110927770Y-91300500D01*
X110994809Y-91320185D01*
X111015451Y-91336819D01*
X112213181Y-92534549D01*
X112246666Y-92595872D01*
X112249500Y-92622230D01*
X112249500Y-93412881D01*
X112229815Y-93479920D01*
X112177011Y-93525675D01*
X112107853Y-93535619D01*
X112069205Y-93523366D01*
X111851344Y-93412360D01*
X111620736Y-93337432D01*
X111381245Y-93299500D01*
X111381240Y-93299500D01*
X109618760Y-93299500D01*
X109618755Y-93299500D01*
X109379263Y-93337432D01*
X109148655Y-93412360D01*
X108932598Y-93522448D01*
X108736437Y-93664966D01*
X108736432Y-93664970D01*
X108564970Y-93836432D01*
X108564966Y-93836437D01*
X108422448Y-94032598D01*
X108312360Y-94248655D01*
X108237432Y-94479263D01*
X108199500Y-94718754D01*
X108199500Y-94961245D01*
X108237432Y-95200736D01*
X108312360Y-95431344D01*
X108422448Y-95647401D01*
X108564966Y-95843562D01*
X108564970Y-95843567D01*
X108736432Y-96015029D01*
X108736437Y-96015033D01*
X108898371Y-96132684D01*
X108932602Y-96157554D01*
X109097504Y-96241576D01*
X109148655Y-96267639D01*
X109263633Y-96304997D01*
X109379265Y-96342568D01*
X109490186Y-96360136D01*
X109618755Y-96380500D01*
X109618760Y-96380500D01*
X109708572Y-96380500D01*
X109720578Y-96384025D01*
X109733045Y-96382939D01*
X109753469Y-96393683D01*
X109775611Y-96400185D01*
X109785294Y-96410424D01*
X109794881Y-96415468D01*
X109807177Y-96433565D01*
X109816468Y-96443390D01*
X109820218Y-96450012D01*
X109834916Y-96485495D01*
X109867813Y-96534729D01*
X109870349Y-96538525D01*
X109870359Y-96538542D01*
X109917046Y-96608414D01*
X109917052Y-96608421D01*
X111476677Y-98168045D01*
X111510162Y-98229368D01*
X111505178Y-98299060D01*
X111463306Y-98354993D01*
X111397842Y-98379410D01*
X111386112Y-98379370D01*
X111386112Y-98379500D01*
X109618755Y-98379500D01*
X109379263Y-98417432D01*
X109148655Y-98492360D01*
X108932598Y-98602448D01*
X108736437Y-98744966D01*
X108736432Y-98744970D01*
X108564970Y-98916432D01*
X108564966Y-98916437D01*
X108422448Y-99112598D01*
X108312360Y-99328655D01*
X108237432Y-99559263D01*
X108199500Y-99798754D01*
X108199500Y-100041245D01*
X108237432Y-100280736D01*
X108312360Y-100511344D01*
X108422448Y-100727401D01*
X108564966Y-100923562D01*
X108564970Y-100923567D01*
X108736432Y-101095029D01*
X108736437Y-101095033D01*
X108907539Y-101219345D01*
X108932602Y-101237554D01*
X109148653Y-101347638D01*
X109148655Y-101347639D01*
X109263959Y-101385103D01*
X109379265Y-101422568D01*
X109490186Y-101440136D01*
X109618755Y-101460500D01*
X109618760Y-101460500D01*
X110927770Y-101460500D01*
X110994809Y-101480185D01*
X111015451Y-101496819D01*
X112018632Y-102500000D01*
X112961452Y-103442819D01*
X112994937Y-103504142D01*
X112989953Y-103573834D01*
X112948081Y-103629767D01*
X112882617Y-103654184D01*
X112873771Y-103654500D01*
X112042322Y-103654500D01*
X111986027Y-103640985D01*
X111851344Y-103572360D01*
X111620736Y-103497432D01*
X111381245Y-103459500D01*
X111381240Y-103459500D01*
X109618760Y-103459500D01*
X109618755Y-103459500D01*
X109379263Y-103497432D01*
X109148655Y-103572360D01*
X108932598Y-103682448D01*
X108736437Y-103824966D01*
X108736432Y-103824970D01*
X108564970Y-103996432D01*
X108564966Y-103996437D01*
X108422448Y-104192598D01*
X108312360Y-104408655D01*
X108237432Y-104639263D01*
X108199500Y-104878754D01*
X108199500Y-105121245D01*
X108237432Y-105360736D01*
X108312360Y-105591344D01*
X108422448Y-105807401D01*
X108564966Y-106003562D01*
X108564970Y-106003567D01*
X108736432Y-106175029D01*
X108736437Y-106175033D01*
X108891851Y-106287947D01*
X108932602Y-106317554D01*
X109117893Y-106411965D01*
X109148655Y-106427639D01*
X109263959Y-106465103D01*
X109379265Y-106502568D01*
X109490186Y-106520136D01*
X109618755Y-106540500D01*
X109618760Y-106540500D01*
X111381245Y-106540500D01*
X111497347Y-106522110D01*
X111620735Y-106502568D01*
X111851347Y-106427638D01*
X112067398Y-106317554D01*
X112263569Y-106175028D01*
X112435028Y-106003569D01*
X112577554Y-105807398D01*
X112687638Y-105591347D01*
X112762568Y-105360735D01*
X112778507Y-105260102D01*
X112808436Y-105196967D01*
X112867748Y-105160036D01*
X112900980Y-105155500D01*
X115928668Y-105155500D01*
X115995707Y-105175185D01*
X116041462Y-105227989D01*
X116051406Y-105297147D01*
X116046374Y-105318505D01*
X116035143Y-105352394D01*
X116025000Y-105451677D01*
X116025000Y-105475000D01*
X117445000Y-105475000D01*
X117458681Y-105461319D01*
X117520004Y-105427834D01*
X117546362Y-105425000D01*
X118976000Y-105425000D01*
X119043039Y-105444685D01*
X119088794Y-105497489D01*
X119100000Y-105549000D01*
X119100000Y-105801000D01*
X119080315Y-105868039D01*
X119027511Y-105913794D01*
X118976000Y-105925000D01*
X118105000Y-105925000D01*
X118091319Y-105938681D01*
X118029996Y-105972166D01*
X118003638Y-105975000D01*
X116025001Y-105975000D01*
X116025001Y-105998322D01*
X116035144Y-106097607D01*
X116088452Y-106258481D01*
X116088457Y-106258492D01*
X116177424Y-106402728D01*
X116177427Y-106402732D01*
X116186660Y-106411965D01*
X116220145Y-106473288D01*
X116215161Y-106542980D01*
X116186663Y-106587324D01*
X116177033Y-106596953D01*
X116177029Y-106596959D01*
X116088001Y-106741294D01*
X116087996Y-106741305D01*
X116034651Y-106902290D01*
X116024500Y-107001647D01*
X116024500Y-107137770D01*
X116004815Y-107204809D01*
X115988181Y-107225451D01*
X115000451Y-108213181D01*
X114939128Y-108246666D01*
X114912770Y-108249500D01*
X109362229Y-108249500D01*
X109295190Y-108229815D01*
X109274548Y-108213181D01*
X106786819Y-105725451D01*
X106753334Y-105664128D01*
X106750500Y-105637770D01*
X106750500Y-84430000D01*
X108220400Y-84430000D01*
X109845879Y-84430000D01*
X109826901Y-84475818D01*
X109800000Y-84611056D01*
X109800000Y-84748944D01*
X109826901Y-84884182D01*
X109845879Y-84930000D01*
X108220400Y-84930000D01*
X108237919Y-85040618D01*
X108312827Y-85271159D01*
X108422874Y-85487136D01*
X108565356Y-85683245D01*
X108736754Y-85854643D01*
X108932863Y-85997125D01*
X109148840Y-86107172D01*
X109379381Y-86182079D01*
X109618800Y-86220000D01*
X110250000Y-86220000D01*
X110250000Y-85334120D01*
X110295818Y-85353099D01*
X110431056Y-85380000D01*
X110568944Y-85380000D01*
X110704182Y-85353099D01*
X110750000Y-85334120D01*
X110750000Y-86220000D01*
X111381200Y-86220000D01*
X111620618Y-86182079D01*
X111851159Y-86107172D01*
X112067136Y-85997125D01*
X112263245Y-85854643D01*
X112434643Y-85683245D01*
X112577125Y-85487136D01*
X112687172Y-85271159D01*
X112762080Y-85040618D01*
X112779600Y-84930000D01*
X111154121Y-84930000D01*
X111173099Y-84884182D01*
X111200000Y-84748944D01*
X111200000Y-84611056D01*
X111173099Y-84475818D01*
X111154121Y-84430000D01*
X112779600Y-84430000D01*
X112762080Y-84319381D01*
X112687172Y-84088840D01*
X112577125Y-83872863D01*
X112434643Y-83676754D01*
X112263245Y-83505356D01*
X112067136Y-83362874D01*
X111851159Y-83252827D01*
X111620618Y-83177920D01*
X111381200Y-83140000D01*
X110750000Y-83140000D01*
X110750000Y-84025879D01*
X110704182Y-84006901D01*
X110568944Y-83980000D01*
X110431056Y-83980000D01*
X110295818Y-84006901D01*
X110250000Y-84025879D01*
X110250000Y-83140000D01*
X109618800Y-83140000D01*
X109379381Y-83177920D01*
X109148840Y-83252827D01*
X108932863Y-83362874D01*
X108736754Y-83505356D01*
X108565356Y-83676754D01*
X108422874Y-83872863D01*
X108312827Y-84088840D01*
X108237919Y-84319381D01*
X108220400Y-84430000D01*
X106750500Y-84430000D01*
X106750500Y-82362228D01*
X106770185Y-82295189D01*
X106786814Y-82274552D01*
X108192318Y-80869047D01*
X108200263Y-80864709D01*
X108205689Y-80857462D01*
X108230448Y-80848227D01*
X108253641Y-80835563D01*
X108262670Y-80836208D01*
X108271153Y-80833045D01*
X108296973Y-80838661D01*
G37*
%TD.AperFunction*%
%TD*%
%TA.AperFunction,Conductor*%
%TO.N,-VDC*%
G36*
X139703454Y-101270185D02*
G01*
X139749209Y-101322989D01*
X139754118Y-101335489D01*
X139790186Y-101444334D01*
X139882288Y-101593656D01*
X140006344Y-101717712D01*
X140155666Y-101809814D01*
X140322203Y-101864999D01*
X140424991Y-101875500D01*
X141150008Y-101875499D01*
X141150016Y-101875498D01*
X141150019Y-101875498D01*
X141206302Y-101869748D01*
X141252797Y-101864999D01*
X141419334Y-101809814D01*
X141568656Y-101717712D01*
X141692712Y-101593656D01*
X141735172Y-101524815D01*
X141787116Y-101478093D01*
X141856079Y-101466870D01*
X141920161Y-101494712D01*
X141959018Y-101552781D01*
X141962326Y-101565721D01*
X141977340Y-101641200D01*
X141977343Y-101641209D01*
X142033913Y-101777782D01*
X142033914Y-101777783D01*
X142033916Y-101777787D01*
X142055316Y-101809814D01*
X142099204Y-101875499D01*
X142116049Y-101900709D01*
X142464181Y-102248841D01*
X142497666Y-102310164D01*
X142500500Y-102336522D01*
X142500500Y-106948843D01*
X142491855Y-106978282D01*
X142485331Y-107008273D01*
X142481576Y-107013287D01*
X142480815Y-107015882D01*
X142464179Y-107036527D01*
X142446571Y-107054134D01*
X142406351Y-107081009D01*
X142394505Y-107085916D01*
X142271581Y-107168050D01*
X142167055Y-107272576D01*
X142166401Y-107273374D01*
X142165268Y-107274363D01*
X142162742Y-107276890D01*
X142162571Y-107276719D01*
X142135647Y-107300245D01*
X142071956Y-107339531D01*
X141952029Y-107459459D01*
X141863001Y-107603794D01*
X141862996Y-107603805D01*
X141809651Y-107764790D01*
X141799500Y-107864147D01*
X141799500Y-108810837D01*
X141799501Y-108810855D01*
X141809650Y-108910207D01*
X141809651Y-108910210D01*
X141862996Y-109071194D01*
X141863001Y-109071205D01*
X141952029Y-109215540D01*
X141952032Y-109215544D01*
X142024307Y-109287819D01*
X142057792Y-109349142D01*
X142052808Y-109418834D01*
X142010936Y-109474767D01*
X141945472Y-109499184D01*
X141936626Y-109499500D01*
X140563374Y-109499500D01*
X140496335Y-109479815D01*
X140450580Y-109427011D01*
X140440636Y-109357853D01*
X140469661Y-109294297D01*
X140475693Y-109287819D01*
X140480895Y-109282617D01*
X140547968Y-109215544D01*
X140637003Y-109071197D01*
X140690349Y-108910208D01*
X140700500Y-108810845D01*
X140700499Y-107864156D01*
X140690349Y-107764792D01*
X140637003Y-107603803D01*
X140636999Y-107603797D01*
X140636998Y-107603794D01*
X140547970Y-107459459D01*
X140547967Y-107459455D01*
X140428044Y-107339532D01*
X140428040Y-107339529D01*
X140283705Y-107250501D01*
X140283699Y-107250498D01*
X140283697Y-107250497D01*
X140266933Y-107244942D01*
X140122709Y-107197151D01*
X140023346Y-107187000D01*
X139476662Y-107187000D01*
X139476644Y-107187001D01*
X139377292Y-107197150D01*
X139377289Y-107197151D01*
X139216305Y-107250496D01*
X139216294Y-107250501D01*
X139071959Y-107339529D01*
X139071955Y-107339532D01*
X138952032Y-107459455D01*
X138952029Y-107459459D01*
X138909693Y-107528097D01*
X138857745Y-107574822D01*
X138804155Y-107587000D01*
X131924730Y-107587000D01*
X131857691Y-107567315D01*
X131837049Y-107550681D01*
X131511818Y-107225450D01*
X131478333Y-107164127D01*
X131475499Y-107137769D01*
X131475499Y-107001658D01*
X131475498Y-107001644D01*
X131465349Y-106902292D01*
X131465348Y-106902289D01*
X131450972Y-106858905D01*
X131412003Y-106741303D01*
X131411999Y-106741297D01*
X131411998Y-106741294D01*
X131322970Y-106596959D01*
X131322967Y-106596955D01*
X131203044Y-106477032D01*
X131203040Y-106477029D01*
X131058705Y-106388001D01*
X131058699Y-106387998D01*
X131058697Y-106387997D01*
X131058694Y-106387996D01*
X130897709Y-106334651D01*
X130798352Y-106324500D01*
X130798345Y-106324500D01*
X130629835Y-106324500D01*
X130562796Y-106304815D01*
X130560945Y-106303603D01*
X130525491Y-106279913D01*
X130388917Y-106223343D01*
X130388907Y-106223340D01*
X130243920Y-106194500D01*
X130243918Y-106194500D01*
X130004604Y-106194500D01*
X129957155Y-106185062D01*
X129933497Y-106175263D01*
X129933493Y-106175262D01*
X129933488Y-106175260D01*
X129778845Y-106144500D01*
X129778842Y-106144500D01*
X129621158Y-106144500D01*
X129500338Y-106168531D01*
X129441556Y-106165991D01*
X129377572Y-106147403D01*
X129377573Y-106147403D01*
X129377569Y-106147402D01*
X129377566Y-106147401D01*
X129377563Y-106147401D01*
X129340701Y-106144500D01*
X129340694Y-106144500D01*
X127624000Y-106144500D01*
X127556961Y-106124815D01*
X127511206Y-106072011D01*
X127500000Y-106020500D01*
X127500000Y-105329500D01*
X127519685Y-105262461D01*
X127572489Y-105216706D01*
X127624000Y-105205500D01*
X129340686Y-105205500D01*
X129340694Y-105205500D01*
X129377569Y-105202598D01*
X129377571Y-105202597D01*
X129377573Y-105202597D01*
X129522733Y-105160424D01*
X129557328Y-105155500D01*
X133956420Y-105155500D01*
X134053962Y-105136096D01*
X134101413Y-105126658D01*
X134230760Y-105073081D01*
X134237991Y-105070086D01*
X134237992Y-105070085D01*
X134237995Y-105070084D01*
X134310581Y-105021584D01*
X134360916Y-104987952D01*
X135062049Y-104286817D01*
X135123372Y-104253333D01*
X135149730Y-104250499D01*
X135775002Y-104250499D01*
X135775008Y-104250499D01*
X135877797Y-104239999D01*
X136044334Y-104184814D01*
X136193656Y-104092712D01*
X136212319Y-104074049D01*
X136273642Y-104040564D01*
X136343334Y-104045548D01*
X136387681Y-104074049D01*
X136406344Y-104092712D01*
X136555666Y-104184814D01*
X136722203Y-104239999D01*
X136824991Y-104250500D01*
X138175008Y-104250499D01*
X138277797Y-104239999D01*
X138444334Y-104184814D01*
X138593656Y-104092712D01*
X138717712Y-103968656D01*
X138809814Y-103819334D01*
X138864999Y-103652797D01*
X138875500Y-103550009D01*
X138875499Y-102824992D01*
X138864999Y-102722203D01*
X138809814Y-102555666D01*
X138717712Y-102406344D01*
X138593656Y-102282288D01*
X138593652Y-102282285D01*
X138569421Y-102267339D01*
X138522696Y-102215391D01*
X138511475Y-102146429D01*
X138528983Y-102096699D01*
X138537001Y-102083700D01*
X138537000Y-102083700D01*
X138537003Y-102083697D01*
X138590349Y-101922708D01*
X138600500Y-101823345D01*
X138600499Y-101374499D01*
X138620183Y-101307461D01*
X138672987Y-101261706D01*
X138724499Y-101250500D01*
X139636415Y-101250500D01*
X139703454Y-101270185D01*
G37*
%TD.AperFunction*%
%TA.AperFunction,Conductor*%
G36*
X174919334Y-97409192D02*
G01*
X174975267Y-97451064D01*
X174999684Y-97516528D01*
X175000000Y-97525374D01*
X175000000Y-103398945D01*
X174999500Y-103401459D01*
X174999500Y-103598541D01*
X175000000Y-103601054D01*
X175000000Y-104062105D01*
X174980315Y-104129144D01*
X174950727Y-104161059D01*
X174823077Y-104257455D01*
X174698163Y-104394480D01*
X174698161Y-104394482D01*
X174600553Y-104552124D01*
X174600551Y-104552130D01*
X174533572Y-104725024D01*
X174499500Y-104907292D01*
X174499500Y-104997293D01*
X174499382Y-105002702D01*
X174482614Y-105386750D01*
X174481671Y-105397526D01*
X174431849Y-105775957D01*
X174429971Y-105786610D01*
X174347354Y-106159272D01*
X174344554Y-106169721D01*
X174229775Y-106533755D01*
X174226075Y-106543921D01*
X174080002Y-106896572D01*
X174075430Y-106906376D01*
X173899183Y-107244942D01*
X173893775Y-107254310D01*
X173688681Y-107576244D01*
X173682476Y-107585105D01*
X173450110Y-107887930D01*
X173443156Y-107896217D01*
X173185284Y-108177635D01*
X173177635Y-108185284D01*
X172896217Y-108443156D01*
X172887930Y-108450110D01*
X172585105Y-108682476D01*
X172576244Y-108688681D01*
X172254310Y-108893775D01*
X172244942Y-108899183D01*
X171906376Y-109075430D01*
X171896572Y-109080002D01*
X171543921Y-109226075D01*
X171533755Y-109229775D01*
X171169721Y-109344554D01*
X171159272Y-109347354D01*
X170786610Y-109429971D01*
X170775957Y-109431849D01*
X170397526Y-109481671D01*
X170386750Y-109482614D01*
X170121840Y-109494180D01*
X170054005Y-109477438D01*
X170005991Y-109426680D01*
X169993040Y-109358021D01*
X170019265Y-109293260D01*
X170028741Y-109282626D01*
X172192952Y-107118416D01*
X172235903Y-107054134D01*
X172265034Y-107010536D01*
X172265034Y-107010534D01*
X172270967Y-107001656D01*
X172275084Y-106995495D01*
X172322538Y-106880931D01*
X172331659Y-106858912D01*
X172360500Y-106713917D01*
X172360500Y-106566082D01*
X172360500Y-103930416D01*
X172380185Y-103863377D01*
X172411613Y-103830099D01*
X172457219Y-103796966D01*
X172601966Y-103652219D01*
X172601968Y-103652215D01*
X172601971Y-103652213D01*
X172679575Y-103545398D01*
X172722287Y-103486610D01*
X172815220Y-103304219D01*
X172878477Y-103109534D01*
X172910500Y-102907352D01*
X172910500Y-102702648D01*
X172887220Y-102555666D01*
X172878477Y-102500465D01*
X172840797Y-102384500D01*
X172815220Y-102305781D01*
X172815218Y-102305778D01*
X172815218Y-102305776D01*
X172763865Y-102204991D01*
X172722287Y-102123390D01*
X172705363Y-102100096D01*
X172601971Y-101957786D01*
X172457213Y-101813028D01*
X172291613Y-101692715D01*
X172291612Y-101692714D01*
X172291610Y-101692713D01*
X172231898Y-101662288D01*
X172109223Y-101599781D01*
X171914534Y-101536522D01*
X171720894Y-101505853D01*
X171712352Y-101504500D01*
X171507648Y-101504500D01*
X171499106Y-101505853D01*
X171305465Y-101536522D01*
X171110776Y-101599781D01*
X170928386Y-101692715D01*
X170762786Y-101813028D01*
X170618028Y-101957786D01*
X170497715Y-102123386D01*
X170404781Y-102305776D01*
X170341522Y-102500465D01*
X170309500Y-102702648D01*
X170309500Y-102907351D01*
X170341522Y-103109534D01*
X170404781Y-103304223D01*
X170497715Y-103486613D01*
X170618028Y-103652213D01*
X170618034Y-103652219D01*
X170762781Y-103796966D01*
X170808384Y-103830098D01*
X170851050Y-103885425D01*
X170859500Y-103930416D01*
X170859500Y-106277770D01*
X170839815Y-106344809D01*
X170823181Y-106365451D01*
X168775451Y-108413181D01*
X168714128Y-108446666D01*
X168687770Y-108449500D01*
X167374500Y-108449500D01*
X167307461Y-108429815D01*
X167261706Y-108377011D01*
X167250500Y-108325500D01*
X167250500Y-103952212D01*
X167270185Y-103885173D01*
X167301613Y-103851895D01*
X167377219Y-103796966D01*
X167521966Y-103652219D01*
X167521968Y-103652215D01*
X167521971Y-103652213D01*
X167599575Y-103545398D01*
X167642287Y-103486610D01*
X167735220Y-103304219D01*
X167798477Y-103109534D01*
X167830500Y-102907352D01*
X167830500Y-102702648D01*
X167807220Y-102555666D01*
X167798477Y-102500465D01*
X167760797Y-102384500D01*
X167735220Y-102305781D01*
X167735218Y-102305778D01*
X167735218Y-102305776D01*
X167683865Y-102204991D01*
X167642287Y-102123390D01*
X167625363Y-102100096D01*
X167521971Y-101957786D01*
X167377213Y-101813028D01*
X167211613Y-101692715D01*
X167211612Y-101692714D01*
X167211610Y-101692713D01*
X167151898Y-101662288D01*
X167029223Y-101599781D01*
X166834534Y-101536522D01*
X166640894Y-101505853D01*
X166632352Y-101504500D01*
X166427648Y-101504500D01*
X166419106Y-101505853D01*
X166225465Y-101536522D01*
X166030776Y-101599781D01*
X165848386Y-101692715D01*
X165682786Y-101813028D01*
X165538032Y-101957782D01*
X165538028Y-101957787D01*
X165469978Y-102051451D01*
X165414648Y-102094117D01*
X165345035Y-102100096D01*
X165283240Y-102067490D01*
X165251954Y-102017570D01*
X165232144Y-101957787D01*
X165224814Y-101935666D01*
X165132712Y-101786344D01*
X165026818Y-101680450D01*
X164993334Y-101619127D01*
X164990500Y-101592769D01*
X164990500Y-98374500D01*
X165010185Y-98307461D01*
X165062989Y-98261706D01*
X165114500Y-98250500D01*
X173332746Y-98250500D01*
X173363770Y-98244328D01*
X173429392Y-98231275D01*
X173526040Y-98212051D01*
X173579369Y-98189961D01*
X173708118Y-98136632D01*
X173717094Y-98130634D01*
X173724796Y-98127443D01*
X173728513Y-98123857D01*
X173761787Y-98112117D01*
X173796188Y-98105275D01*
X173892836Y-98086051D01*
X173946165Y-98063961D01*
X174074914Y-98010632D01*
X174238782Y-97901139D01*
X174378139Y-97761782D01*
X174378140Y-97761779D01*
X174385206Y-97754714D01*
X174385209Y-97754710D01*
X174491882Y-97648036D01*
X174540562Y-97618012D01*
X174558697Y-97612003D01*
X174703044Y-97522968D01*
X174788319Y-97437693D01*
X174849642Y-97404208D01*
X174919334Y-97409192D01*
G37*
%TD.AperFunction*%
%TA.AperFunction,Conductor*%
G36*
X151942539Y-78210185D02*
G01*
X151988294Y-78262989D01*
X151999500Y-78314500D01*
X151999500Y-85773541D01*
X151999500Y-85773543D01*
X151999499Y-85773543D01*
X152022117Y-85887242D01*
X152024500Y-85911434D01*
X152024500Y-88873541D01*
X152037979Y-88941303D01*
X152059323Y-89048609D01*
X152059324Y-89048612D01*
X152059323Y-89048612D01*
X152062948Y-89066831D01*
X152062949Y-89066837D01*
X152138364Y-89248907D01*
X152138371Y-89248920D01*
X152247860Y-89412781D01*
X152247863Y-89412785D01*
X152391537Y-89556459D01*
X152391559Y-89556479D01*
X160719735Y-97884655D01*
X160719764Y-97884686D01*
X160862214Y-98027136D01*
X160862218Y-98027139D01*
X161026079Y-98136628D01*
X161026092Y-98136635D01*
X161154833Y-98189961D01*
X161197744Y-98207735D01*
X161208164Y-98212051D01*
X161304812Y-98231275D01*
X161353135Y-98240887D01*
X161401458Y-98250500D01*
X161401459Y-98250500D01*
X161401460Y-98250500D01*
X161598540Y-98250500D01*
X162865500Y-98250500D01*
X162932539Y-98270185D01*
X162978294Y-98322989D01*
X162989500Y-98374500D01*
X162989500Y-101592769D01*
X162969815Y-101659808D01*
X162953182Y-101680450D01*
X162847287Y-101786345D01*
X162755187Y-101935663D01*
X162755186Y-101935666D01*
X162700001Y-102102203D01*
X162700001Y-102102204D01*
X162700000Y-102102204D01*
X162689500Y-102204983D01*
X162689500Y-103405001D01*
X162689501Y-103405018D01*
X162700000Y-103507796D01*
X162700001Y-103507799D01*
X162747856Y-103652213D01*
X162755186Y-103674334D01*
X162847288Y-103823656D01*
X162971344Y-103947712D01*
X163120666Y-104039814D01*
X163287203Y-104094999D01*
X163389991Y-104105500D01*
X164590008Y-104105499D01*
X164692797Y-104094999D01*
X164859334Y-104039814D01*
X165008656Y-103947712D01*
X165132712Y-103823656D01*
X165224814Y-103674334D01*
X165251955Y-103592427D01*
X165291726Y-103534984D01*
X165356242Y-103508161D01*
X165425018Y-103520476D01*
X165469977Y-103558547D01*
X165538034Y-103652219D01*
X165682781Y-103796966D01*
X165698382Y-103808300D01*
X165741049Y-103863627D01*
X165749500Y-103908620D01*
X165749500Y-108325500D01*
X165729815Y-108392539D01*
X165677011Y-108438294D01*
X165625500Y-108449500D01*
X148312229Y-108449500D01*
X148245190Y-108429815D01*
X148224548Y-108413181D01*
X145036819Y-105225451D01*
X145003334Y-105164128D01*
X145000500Y-105137770D01*
X145000500Y-100963579D01*
X144971659Y-100818592D01*
X144971658Y-100818591D01*
X144971658Y-100818587D01*
X144968389Y-100810694D01*
X144915087Y-100682011D01*
X144915085Y-100682007D01*
X144915084Y-100682005D01*
X144859956Y-100599500D01*
X144832952Y-100559084D01*
X144806720Y-100532852D01*
X144802251Y-100527203D01*
X144791760Y-100501216D01*
X144778333Y-100476627D01*
X144777062Y-100464810D01*
X144776095Y-100462414D01*
X144776548Y-100460026D01*
X144775499Y-100450269D01*
X144775499Y-99824998D01*
X144775498Y-99824981D01*
X144764999Y-99722203D01*
X144764998Y-99722200D01*
X144745879Y-99664504D01*
X144709814Y-99555666D01*
X144617712Y-99406344D01*
X144499319Y-99287951D01*
X144465834Y-99226628D01*
X144463000Y-99200270D01*
X144463000Y-89899729D01*
X144482685Y-89832690D01*
X144499319Y-89812048D01*
X146332949Y-87978418D01*
X146332951Y-87978416D01*
X146357368Y-87941873D01*
X146415084Y-87855495D01*
X146471658Y-87718913D01*
X146500500Y-87573918D01*
X146500500Y-86118069D01*
X146520185Y-86051030D01*
X146572989Y-86005275D01*
X146642147Y-85995331D01*
X146680795Y-86007584D01*
X146695781Y-86015220D01*
X146805993Y-86051030D01*
X146890465Y-86078477D01*
X146991557Y-86094488D01*
X147092648Y-86110500D01*
X147092649Y-86110500D01*
X147297351Y-86110500D01*
X147297352Y-86110500D01*
X147499534Y-86078477D01*
X147694219Y-86015220D01*
X147876610Y-85922287D01*
X147969590Y-85854732D01*
X148042213Y-85801971D01*
X148042215Y-85801968D01*
X148042219Y-85801966D01*
X148186966Y-85657219D01*
X148186968Y-85657215D01*
X148186971Y-85657213D01*
X148270153Y-85542721D01*
X148307287Y-85491610D01*
X148400220Y-85309219D01*
X148463477Y-85114534D01*
X148495500Y-84912352D01*
X148495500Y-84707648D01*
X148463477Y-84505466D01*
X148400220Y-84310781D01*
X148400218Y-84310778D01*
X148400218Y-84310776D01*
X148338678Y-84189999D01*
X148307287Y-84128390D01*
X148245039Y-84042712D01*
X148186971Y-83962786D01*
X148042213Y-83818028D01*
X147876613Y-83697715D01*
X147876612Y-83697714D01*
X147876610Y-83697713D01*
X147819653Y-83668691D01*
X147694223Y-83604781D01*
X147499534Y-83541522D01*
X147324995Y-83513878D01*
X147297352Y-83509500D01*
X147092648Y-83509500D01*
X147068329Y-83513351D01*
X146890465Y-83541522D01*
X146740976Y-83590095D01*
X146695781Y-83604780D01*
X146695778Y-83604781D01*
X146695773Y-83604783D01*
X146680792Y-83612416D01*
X146612123Y-83625311D01*
X146547383Y-83599033D01*
X146507127Y-83541925D01*
X146500500Y-83501930D01*
X146500500Y-81612228D01*
X146520185Y-81545189D01*
X146536815Y-81524551D01*
X146994952Y-81066413D01*
X147056275Y-81032929D01*
X147087776Y-81030789D01*
X147087776Y-81030500D01*
X147092044Y-81030500D01*
X147092368Y-81030478D01*
X147092647Y-81030500D01*
X147092648Y-81030500D01*
X147297351Y-81030500D01*
X147297352Y-81030500D01*
X147499534Y-80998477D01*
X147694219Y-80935220D01*
X147876610Y-80842287D01*
X148009501Y-80745737D01*
X148042213Y-80721971D01*
X148042215Y-80721968D01*
X148042219Y-80721966D01*
X148186966Y-80577219D01*
X148186968Y-80577215D01*
X148186971Y-80577213D01*
X148280941Y-80447872D01*
X148307287Y-80411610D01*
X148400220Y-80229219D01*
X148463477Y-80034534D01*
X148495500Y-79832352D01*
X148495500Y-79627648D01*
X148480605Y-79533608D01*
X148463477Y-79425465D01*
X148400218Y-79230776D01*
X148353504Y-79139096D01*
X148307287Y-79048390D01*
X148269438Y-78996295D01*
X148186971Y-78882786D01*
X148042219Y-78738034D01*
X148009499Y-78714262D01*
X147948547Y-78669978D01*
X147905882Y-78614649D01*
X147899903Y-78545036D01*
X147932508Y-78483240D01*
X147982426Y-78451955D01*
X148064334Y-78424814D01*
X148213656Y-78332712D01*
X148319550Y-78226818D01*
X148380873Y-78193334D01*
X148407231Y-78190500D01*
X151301459Y-78190500D01*
X151875500Y-78190500D01*
X151942539Y-78210185D01*
G37*
%TD.AperFunction*%
%TA.AperFunction,Conductor*%
G36*
X141891539Y-90520185D02*
G01*
X141937294Y-90572989D01*
X141948500Y-90624500D01*
X141948500Y-99383804D01*
X141928815Y-99450843D01*
X141876011Y-99496598D01*
X141806853Y-99506542D01*
X141743297Y-99477517D01*
X141718961Y-99448901D01*
X141692712Y-99406344D01*
X141568656Y-99282288D01*
X141435683Y-99200270D01*
X141419336Y-99190187D01*
X141419331Y-99190185D01*
X141405377Y-99185561D01*
X141252797Y-99135001D01*
X141252795Y-99135000D01*
X141150010Y-99124500D01*
X140424998Y-99124500D01*
X140424980Y-99124501D01*
X140322203Y-99135000D01*
X140322200Y-99135001D01*
X140155668Y-99190185D01*
X140155663Y-99190187D01*
X140006342Y-99282289D01*
X139882289Y-99406342D01*
X139790187Y-99555663D01*
X139790185Y-99555668D01*
X139754121Y-99664504D01*
X139714348Y-99721949D01*
X139649833Y-99748772D01*
X139636415Y-99749500D01*
X138737230Y-99749500D01*
X138670191Y-99729815D01*
X138649549Y-99713181D01*
X138254421Y-99318052D01*
X138254418Y-99318049D01*
X138240123Y-99308498D01*
X138195318Y-99254886D01*
X138186611Y-99185561D01*
X138216766Y-99122533D01*
X138243913Y-99099860D01*
X138328044Y-99047968D01*
X138447968Y-98928044D01*
X138537003Y-98783697D01*
X138590349Y-98622708D01*
X138600500Y-98523345D01*
X138600499Y-98262228D01*
X138620183Y-98195190D01*
X138636813Y-98174553D01*
X140058280Y-96753085D01*
X140119601Y-96719602D01*
X140133356Y-96717410D01*
X140152685Y-96715436D01*
X140312287Y-96662549D01*
X140455391Y-96574281D01*
X140574281Y-96455391D01*
X140662549Y-96312287D01*
X140715436Y-96152685D01*
X140725500Y-96054174D01*
X140725500Y-95520826D01*
X140715436Y-95422315D01*
X140662549Y-95262713D01*
X140662545Y-95262707D01*
X140662544Y-95262704D01*
X140574283Y-95119612D01*
X140574280Y-95119608D01*
X140542353Y-95087681D01*
X140508868Y-95026358D01*
X140513852Y-94956666D01*
X140542353Y-94912319D01*
X140574281Y-94880391D01*
X140662549Y-94737287D01*
X140715436Y-94577685D01*
X140725500Y-94479174D01*
X140725500Y-93945826D01*
X140715436Y-93847315D01*
X140662549Y-93687713D01*
X140662545Y-93687707D01*
X140662544Y-93687704D01*
X140574283Y-93544612D01*
X140574280Y-93544608D01*
X140536819Y-93507147D01*
X140522115Y-93480219D01*
X140505523Y-93454401D01*
X140504631Y-93448200D01*
X140503334Y-93445824D01*
X140500500Y-93419466D01*
X140500500Y-93363585D01*
X140520185Y-93296546D01*
X140572989Y-93250791D01*
X140585489Y-93245881D01*
X140694334Y-93209814D01*
X140843656Y-93117712D01*
X140967712Y-92993656D01*
X141059814Y-92844334D01*
X141114999Y-92677797D01*
X141125500Y-92575009D01*
X141125499Y-91849992D01*
X141123997Y-91835293D01*
X141114999Y-91747203D01*
X141114998Y-91747200D01*
X141079893Y-91641261D01*
X141059814Y-91580666D01*
X140967712Y-91431344D01*
X140843656Y-91307288D01*
X140694334Y-91215186D01*
X140527797Y-91160001D01*
X140527795Y-91160000D01*
X140425010Y-91149500D01*
X139074998Y-91149500D01*
X139074981Y-91149501D01*
X138972203Y-91160000D01*
X138972199Y-91160001D01*
X138838503Y-91204304D01*
X138768674Y-91206706D01*
X138708632Y-91170974D01*
X138677440Y-91108453D01*
X138675499Y-91086608D01*
X138675499Y-90624499D01*
X138695184Y-90557461D01*
X138747988Y-90511706D01*
X138799499Y-90500500D01*
X141824500Y-90500500D01*
X141891539Y-90520185D01*
G37*
%TD.AperFunction*%
%TA.AperFunction,Conductor*%
G36*
X130293334Y-95785192D02*
G01*
X130337681Y-95813693D01*
X130346955Y-95822967D01*
X130346959Y-95822970D01*
X130491294Y-95911998D01*
X130491297Y-95911999D01*
X130491303Y-95912003D01*
X130652292Y-95965349D01*
X130751655Y-95975500D01*
X131298344Y-95975499D01*
X131298352Y-95975498D01*
X131298355Y-95975498D01*
X131352760Y-95969940D01*
X131397708Y-95965349D01*
X131558697Y-95912003D01*
X131614502Y-95877582D01*
X131660403Y-95849270D01*
X131727795Y-95830829D01*
X131794459Y-95851751D01*
X131839228Y-95905393D01*
X131849500Y-95954808D01*
X131849500Y-97334995D01*
X131829815Y-97402034D01*
X131790600Y-97440532D01*
X131771954Y-97452033D01*
X131652029Y-97571959D01*
X131563001Y-97716294D01*
X131562996Y-97716305D01*
X131509651Y-97877290D01*
X131499500Y-97976647D01*
X131499500Y-98523337D01*
X131499501Y-98523355D01*
X131509650Y-98622707D01*
X131509651Y-98622710D01*
X131562996Y-98783694D01*
X131563001Y-98783705D01*
X131652029Y-98928040D01*
X131652032Y-98928044D01*
X131662807Y-98938819D01*
X131696292Y-99000142D01*
X131691308Y-99069834D01*
X131649436Y-99125767D01*
X131583972Y-99150184D01*
X131575126Y-99150500D01*
X130627028Y-99150500D01*
X130559989Y-99130815D01*
X130514234Y-99078011D01*
X130512467Y-99073952D01*
X130459397Y-98945826D01*
X130459390Y-98945814D01*
X130371789Y-98814711D01*
X130371786Y-98814707D01*
X130260292Y-98703213D01*
X130260288Y-98703210D01*
X130129185Y-98615609D01*
X130129172Y-98615602D01*
X129983501Y-98555264D01*
X129983489Y-98555261D01*
X129828845Y-98524500D01*
X129828842Y-98524500D01*
X129671158Y-98524500D01*
X129671153Y-98524500D01*
X129520661Y-98554435D01*
X129461876Y-98551895D01*
X129377569Y-98527402D01*
X129377563Y-98527401D01*
X129340701Y-98524500D01*
X129340694Y-98524500D01*
X127624000Y-98524500D01*
X127556961Y-98504815D01*
X127511206Y-98452011D01*
X127500000Y-98400500D01*
X127500000Y-96554499D01*
X127519685Y-96487460D01*
X127572489Y-96441705D01*
X127623997Y-96430499D01*
X128432872Y-96430499D01*
X128492483Y-96424091D01*
X128627331Y-96373796D01*
X128742546Y-96287546D01*
X128828796Y-96172331D01*
X128879091Y-96037483D01*
X128879092Y-96037470D01*
X128879963Y-96033789D01*
X128881430Y-96031212D01*
X128881802Y-96030215D01*
X128881963Y-96030275D01*
X128914533Y-95973070D01*
X128976441Y-95940680D01*
X129039644Y-95944589D01*
X129102292Y-95965349D01*
X129201655Y-95975500D01*
X129748344Y-95975499D01*
X129748352Y-95975498D01*
X129748355Y-95975498D01*
X129802760Y-95969940D01*
X129847708Y-95965349D01*
X130008697Y-95912003D01*
X130153044Y-95822968D01*
X130162319Y-95813693D01*
X130223642Y-95780208D01*
X130293334Y-95785192D01*
G37*
%TD.AperFunction*%
%TA.AperFunction,Conductor*%
G36*
X136480836Y-93028464D02*
G01*
X136532045Y-93075996D01*
X136549500Y-93139432D01*
X136549500Y-94587769D01*
X136529815Y-94654808D01*
X136513181Y-94675450D01*
X134517050Y-96671580D01*
X134517044Y-96671588D01*
X134467812Y-96745268D01*
X134467813Y-96745269D01*
X134434921Y-96794496D01*
X134434914Y-96794508D01*
X134378342Y-96931086D01*
X134378340Y-96931092D01*
X134349500Y-97076079D01*
X134349500Y-97334995D01*
X134329815Y-97402034D01*
X134290600Y-97440532D01*
X134271954Y-97452033D01*
X134152029Y-97571959D01*
X134063001Y-97716294D01*
X134062996Y-97716305D01*
X134009651Y-97877290D01*
X133999500Y-97976647D01*
X133999500Y-98523337D01*
X133999501Y-98523355D01*
X134009650Y-98622707D01*
X134009651Y-98622710D01*
X134062996Y-98783694D01*
X134063001Y-98783705D01*
X134152029Y-98928040D01*
X134152032Y-98928044D01*
X134162807Y-98938819D01*
X134196292Y-99000142D01*
X134191308Y-99069834D01*
X134149436Y-99125767D01*
X134083972Y-99150184D01*
X134075126Y-99150500D01*
X133624874Y-99150500D01*
X133557835Y-99130815D01*
X133512080Y-99078011D01*
X133502136Y-99008853D01*
X133531161Y-98945297D01*
X133537193Y-98938819D01*
X133547968Y-98928044D01*
X133637003Y-98783697D01*
X133690349Y-98622708D01*
X133700500Y-98523345D01*
X133700499Y-97976656D01*
X133690349Y-97877292D01*
X133637003Y-97716303D01*
X133636999Y-97716297D01*
X133636998Y-97716294D01*
X133547970Y-97571959D01*
X133547969Y-97571958D01*
X133547968Y-97571956D01*
X133428044Y-97452032D01*
X133409399Y-97440531D01*
X133362677Y-97388582D01*
X133350500Y-97334995D01*
X133350500Y-95224728D01*
X133370185Y-95157689D01*
X133386814Y-95137052D01*
X134962048Y-93561817D01*
X135023371Y-93528333D01*
X135049729Y-93525499D01*
X135675002Y-93525499D01*
X135675008Y-93525499D01*
X135777797Y-93514999D01*
X135944334Y-93459814D01*
X136093656Y-93367712D01*
X136217712Y-93243656D01*
X136309814Y-93094334D01*
X136309816Y-93094326D01*
X136312864Y-93087791D01*
X136315649Y-93089089D01*
X136347547Y-93042999D01*
X136412057Y-93016163D01*
X136480836Y-93028464D01*
G37*
%TD.AperFunction*%
%TA.AperFunction,Conductor*%
G36*
X136355358Y-98575064D02*
G01*
X136406558Y-98622607D01*
X136417706Y-98647017D01*
X136462996Y-98783694D01*
X136463001Y-98783705D01*
X136552029Y-98928040D01*
X136552032Y-98928044D01*
X136562807Y-98938819D01*
X136596292Y-99000142D01*
X136591308Y-99069834D01*
X136549436Y-99125767D01*
X136483972Y-99150184D01*
X136475126Y-99150500D01*
X136124874Y-99150500D01*
X136057835Y-99130815D01*
X136012080Y-99078011D01*
X136002136Y-99008853D01*
X136031161Y-98945297D01*
X136037193Y-98938819D01*
X136047968Y-98928044D01*
X136137003Y-98783697D01*
X136182294Y-98647017D01*
X136222067Y-98589572D01*
X136286583Y-98562749D01*
X136355358Y-98575064D01*
G37*
%TD.AperFunction*%
%TA.AperFunction,Conductor*%
G36*
X132942539Y-86269685D02*
G01*
X132988294Y-86322489D01*
X132999500Y-86374000D01*
X132999500Y-87945396D01*
X132990062Y-87992844D01*
X132988933Y-87995572D01*
X132980262Y-88016506D01*
X132980260Y-88016511D01*
X132949500Y-88171153D01*
X132949500Y-88171158D01*
X132949500Y-88328842D01*
X132951766Y-88340237D01*
X132953969Y-88351310D01*
X132947740Y-88420901D01*
X132904877Y-88476078D01*
X132838987Y-88499322D01*
X132832351Y-88499500D01*
X130926459Y-88499500D01*
X130893569Y-88506041D01*
X130812745Y-88522118D01*
X130788558Y-88524500D01*
X130751663Y-88524500D01*
X130751643Y-88524501D01*
X130652292Y-88534650D01*
X130652289Y-88534651D01*
X130491305Y-88587996D01*
X130491294Y-88588001D01*
X130346959Y-88677029D01*
X130346955Y-88677032D01*
X130227032Y-88796955D01*
X130227029Y-88796959D01*
X130138001Y-88941294D01*
X130137996Y-88941305D01*
X130084651Y-89102290D01*
X130084650Y-89102296D01*
X130079243Y-89155214D01*
X130070450Y-89190051D01*
X130062950Y-89208161D01*
X130062948Y-89208167D01*
X130024500Y-89401456D01*
X130024500Y-89401459D01*
X130024500Y-89598541D01*
X130024500Y-89598543D01*
X130024499Y-89598543D01*
X130062948Y-89791833D01*
X130062950Y-89791840D01*
X130070449Y-89809946D01*
X130079244Y-89844789D01*
X130084651Y-89897709D01*
X130137998Y-90058699D01*
X130157038Y-90089567D01*
X130161734Y-90106125D01*
X130170477Y-90119730D01*
X130175500Y-90154665D01*
X130175500Y-90277013D01*
X130155815Y-90344052D01*
X130103011Y-90389807D01*
X130061228Y-90400631D01*
X130040847Y-90402234D01*
X130028229Y-90405900D01*
X129892113Y-90445445D01*
X129892111Y-90445445D01*
X129892111Y-90445446D01*
X129758805Y-90524282D01*
X129758796Y-90524289D01*
X129649289Y-90633796D01*
X129649282Y-90633805D01*
X129570446Y-90767111D01*
X129527234Y-90915847D01*
X129527234Y-90915849D01*
X129524500Y-90950589D01*
X129524500Y-91549393D01*
X129524501Y-91549415D01*
X129527234Y-91584152D01*
X129527482Y-91585506D01*
X129529500Y-91607787D01*
X129529500Y-93900500D01*
X129509815Y-93967539D01*
X129457011Y-94013294D01*
X129405501Y-94024500D01*
X129201663Y-94024500D01*
X129201644Y-94024501D01*
X129102292Y-94034650D01*
X129102285Y-94034652D01*
X129014458Y-94063755D01*
X128981422Y-94064890D01*
X128948402Y-94067062D01*
X128946640Y-94066086D01*
X128944630Y-94066156D01*
X128916213Y-94049244D01*
X128887272Y-94033225D01*
X128886032Y-94031283D01*
X128884588Y-94030424D01*
X128866283Y-94004850D01*
X128862247Y-93997358D01*
X128828796Y-93907669D01*
X128775835Y-93836923D01*
X128771461Y-93828801D01*
X128766063Y-93803283D01*
X128756949Y-93778847D01*
X128758949Y-93769650D01*
X128757002Y-93760444D01*
X128766255Y-93736061D01*
X128771800Y-93710574D01*
X128781366Y-93695689D01*
X128828796Y-93632331D01*
X128879091Y-93497483D01*
X128885500Y-93437873D01*
X128885499Y-91562128D01*
X128879091Y-91502517D01*
X128865167Y-91465186D01*
X128828797Y-91367671D01*
X128828793Y-91367664D01*
X128742547Y-91252455D01*
X128742544Y-91252452D01*
X128627335Y-91166206D01*
X128627328Y-91166202D01*
X128492482Y-91115908D01*
X128492483Y-91115908D01*
X128432883Y-91109501D01*
X128432881Y-91109500D01*
X128432873Y-91109500D01*
X128432865Y-91109500D01*
X127624000Y-91109500D01*
X127556961Y-91089815D01*
X127511206Y-91037011D01*
X127500000Y-90985500D01*
X127500000Y-88254427D01*
X127500316Y-88245581D01*
X127503576Y-88200001D01*
X127519724Y-87974207D01*
X127522240Y-87956710D01*
X127579130Y-87695192D01*
X127584107Y-87678241D01*
X127677640Y-87427470D01*
X127684985Y-87411388D01*
X127813248Y-87176491D01*
X127822798Y-87161630D01*
X127983195Y-86947366D01*
X127994767Y-86934012D01*
X128184012Y-86744767D01*
X128197366Y-86733195D01*
X128411630Y-86572798D01*
X128426491Y-86563248D01*
X128661388Y-86434985D01*
X128677470Y-86427640D01*
X128928241Y-86334107D01*
X128945192Y-86329130D01*
X129206710Y-86272240D01*
X129224207Y-86269724D01*
X129495582Y-86250316D01*
X129504428Y-86250000D01*
X132875500Y-86250000D01*
X132942539Y-86269685D01*
G37*
%TD.AperFunction*%
%TD*%
M02*
