%TF.GenerationSoftware,KiCad,Pcbnew,9.0.1-1.fc42*%
%TF.CreationDate,2025-04-25T16:42:35-04:00*%
%TF.ProjectId,IGBT_DRVR_CM400HA-24H,49474254-5f44-4525-9652-5f434d343030,rev?*%
%TF.SameCoordinates,Original*%
%TF.FileFunction,Soldermask,Bot*%
%TF.FilePolarity,Negative*%
%FSLAX46Y46*%
G04 Gerber Fmt 4.6, Leading zero omitted, Abs format (unit mm)*
G04 Created by KiCad (PCBNEW 9.0.1-1.fc42) date 2025-04-25 16:42:35*
%MOMM*%
%LPD*%
G01*
G04 APERTURE LIST*
G04 Aperture macros list*
%AMRoundRect*
0 Rectangle with rounded corners*
0 $1 Rounding radius*
0 $2 $3 $4 $5 $6 $7 $8 $9 X,Y pos of 4 corners*
0 Add a 4 corners polygon primitive as box body*
4,1,4,$2,$3,$4,$5,$6,$7,$8,$9,$2,$3,0*
0 Add four circle primitives for the rounded corners*
1,1,$1+$1,$2,$3*
1,1,$1+$1,$4,$5*
1,1,$1+$1,$6,$7*
1,1,$1+$1,$8,$9*
0 Add four rect primitives between the rounded corners*
20,1,$1+$1,$2,$3,$4,$5,0*
20,1,$1+$1,$4,$5,$6,$7,0*
20,1,$1+$1,$6,$7,$8,$9,0*
20,1,$1+$1,$8,$9,$2,$3,0*%
G04 Aperture macros list end*
%ADD10RoundRect,0.249999X-1.550001X0.790001X-1.550001X-0.790001X1.550001X-0.790001X1.550001X0.790001X0*%
%ADD11O,3.600000X2.080000*%
%ADD12C,0.900000*%
%ADD13C,8.600000*%
%ADD14C,1.400000*%
%ADD15C,1.600000*%
%ADD16RoundRect,0.250000X-0.550000X-0.550000X0.550000X-0.550000X0.550000X0.550000X-0.550000X0.550000X0*%
%ADD17RoundRect,0.250000X0.550000X-0.550000X0.550000X0.550000X-0.550000X0.550000X-0.550000X-0.550000X0*%
G04 APERTURE END LIST*
D10*
%TO.C,J5*%
X110500000Y-79600000D03*
D11*
X110500000Y-84680000D03*
X110500000Y-89760000D03*
X110500000Y-94840000D03*
X110500000Y-99920000D03*
X110500000Y-105000000D03*
%TD*%
D12*
%TO.C,J2*%
X166775000Y-80000000D03*
X167719581Y-77719581D03*
X167719581Y-82280419D03*
X170000000Y-76775000D03*
D13*
X170000000Y-80000000D03*
D12*
X170000000Y-83225000D03*
X172280419Y-77719581D03*
X172280419Y-82280419D03*
X173225000Y-80000000D03*
%TD*%
%TO.C,J3*%
X146775000Y-104000000D03*
X147719581Y-101719581D03*
X147719581Y-106280419D03*
X150000000Y-100775000D03*
D13*
X150000000Y-104000000D03*
D12*
X150000000Y-107225000D03*
X152280419Y-101719581D03*
X152280419Y-106280419D03*
X153225000Y-104000000D03*
%TD*%
D14*
%TO.C,J1*%
X125000000Y-76250000D03*
%TD*%
D15*
%TO.C,U1*%
X154815000Y-77190000D03*
X154815000Y-79730000D03*
X154815000Y-82270000D03*
X154815000Y-84810000D03*
X147195000Y-84810000D03*
X147195000Y-82270000D03*
X147195000Y-79730000D03*
D16*
X147195000Y-77190000D03*
%TD*%
D17*
%TO.C,U5*%
X163990000Y-102805000D03*
D15*
X166530000Y-102805000D03*
X169070000Y-102805000D03*
X171610000Y-102805000D03*
X171610000Y-95185000D03*
X169070000Y-95185000D03*
X166530000Y-95185000D03*
X163990000Y-95185000D03*
%TD*%
M02*
