%TF.GenerationSoftware,KiCad,Pcbnew,9.0.1-1.fc42*%
%TF.CreationDate,2025-04-25T16:42:34-04:00*%
%TF.ProjectId,IGBT_DRVR_CM400HA-24H,49474254-5f44-4525-9652-5f434d343030,rev?*%
%TF.SameCoordinates,Original*%
%TF.FileFunction,Copper,L2,Bot*%
%TF.FilePolarity,Positive*%
%FSLAX46Y46*%
G04 Gerber Fmt 4.6, Leading zero omitted, Abs format (unit mm)*
G04 Created by KiCad (PCBNEW 9.0.1-1.fc42) date 2025-04-25 16:42:34*
%MOMM*%
%LPD*%
G01*
G04 APERTURE LIST*
G04 Aperture macros list*
%AMRoundRect*
0 Rectangle with rounded corners*
0 $1 Rounding radius*
0 $2 $3 $4 $5 $6 $7 $8 $9 X,Y pos of 4 corners*
0 Add a 4 corners polygon primitive as box body*
4,1,4,$2,$3,$4,$5,$6,$7,$8,$9,$2,$3,0*
0 Add four circle primitives for the rounded corners*
1,1,$1+$1,$2,$3*
1,1,$1+$1,$4,$5*
1,1,$1+$1,$6,$7*
1,1,$1+$1,$8,$9*
0 Add four rect primitives between the rounded corners*
20,1,$1+$1,$2,$3,$4,$5,0*
20,1,$1+$1,$4,$5,$6,$7,0*
20,1,$1+$1,$6,$7,$8,$9,0*
20,1,$1+$1,$8,$9,$2,$3,0*%
G04 Aperture macros list end*
%TA.AperFunction,ComponentPad*%
%ADD10RoundRect,0.249999X-1.550001X0.790001X-1.550001X-0.790001X1.550001X-0.790001X1.550001X0.790001X0*%
%TD*%
%TA.AperFunction,ComponentPad*%
%ADD11O,3.600000X2.080000*%
%TD*%
%TA.AperFunction,ComponentPad*%
%ADD12C,0.900000*%
%TD*%
%TA.AperFunction,ComponentPad*%
%ADD13C,8.600000*%
%TD*%
%TA.AperFunction,ComponentPad*%
%ADD14C,1.400000*%
%TD*%
%TA.AperFunction,ComponentPad*%
%ADD15C,1.600000*%
%TD*%
%TA.AperFunction,ComponentPad*%
%ADD16RoundRect,0.250000X-0.550000X-0.550000X0.550000X-0.550000X0.550000X0.550000X-0.550000X0.550000X0*%
%TD*%
%TA.AperFunction,ComponentPad*%
%ADD17RoundRect,0.250000X0.550000X-0.550000X0.550000X0.550000X-0.550000X0.550000X-0.550000X-0.550000X0*%
%TD*%
%TA.AperFunction,ViaPad*%
%ADD18C,0.600000*%
%TD*%
%TA.AperFunction,Conductor*%
%ADD19C,0.500000*%
%TD*%
G04 APERTURE END LIST*
D10*
%TO.P,J5,1,Pin_1*%
%TO.N,+5V*%
X110500000Y-79600000D03*
D11*
%TO.P,J5,2,Pin_2*%
%TO.N,GND*%
X110500000Y-84680000D03*
%TO.P,J5,3,Pin_3*%
%TO.N,/LO_{IN}*%
X110500000Y-89760000D03*
%TO.P,J5,4,Pin_4*%
%TO.N,/LO_{PGOOD}*%
X110500000Y-94840000D03*
%TO.P,J5,5,Pin_5*%
%TO.N,/LO_{DESAT}*%
X110500000Y-99920000D03*
%TO.P,J5,6,Pin_6*%
%TO.N,/V_{OUT}*%
X110500000Y-105000000D03*
%TD*%
D12*
%TO.P,J2,1,Pin_1*%
%TO.N,Net-(J2-Pin_1)*%
X166775000Y-80000000D03*
X167719581Y-77719581D03*
X167719581Y-82280419D03*
X170000000Y-76775000D03*
D13*
X170000000Y-80000000D03*
D12*
X170000000Y-83225000D03*
X172280419Y-77719581D03*
X172280419Y-82280419D03*
X173225000Y-80000000D03*
%TD*%
%TO.P,J3,1,Pin_1*%
%TO.N,-VDC*%
X146775000Y-104000000D03*
X147719581Y-101719581D03*
X147719581Y-106280419D03*
X150000000Y-100775000D03*
D13*
X150000000Y-104000000D03*
D12*
X150000000Y-107225000D03*
X152280419Y-101719581D03*
X152280419Y-106280419D03*
X153225000Y-104000000D03*
%TD*%
D14*
%TO.P,J1,1,Pin_1*%
%TO.N,Net-(D3-K)*%
X125000000Y-76250000D03*
%TD*%
D15*
%TO.P,U1,8,EN_B*%
%TO.N,15V_HV*%
X154815000Y-77190000D03*
%TO.P,U1,7,OUT_A*%
%TO.N,Net-(U1-OUT_A)*%
X154815000Y-79730000D03*
%TO.P,U1,6,V+*%
%TO.N,15V_HV*%
X154815000Y-82270000D03*
%TO.P,U1,5,OUT_B*%
%TO.N,Net-(U1-OUT_B)*%
X154815000Y-84810000D03*
%TO.P,U1,4,IN_B*%
%TO.N,Net-(U1-IN_A)*%
X147195000Y-84810000D03*
%TO.P,U1,3,GND*%
%TO.N,-VDC*%
X147195000Y-82270000D03*
%TO.P,U1,2,IN_A*%
%TO.N,Net-(U1-IN_A)*%
X147195000Y-79730000D03*
D16*
%TO.P,U1,1,EN_A*%
%TO.N,15V_HV*%
X147195000Y-77190000D03*
%TD*%
D17*
%TO.P,U5,1,EN_A*%
%TO.N,15V_HV*%
X163990000Y-102805000D03*
D15*
%TO.P,U5,2,IN_A*%
%TO.N,Net-(U1-IN_A)*%
X166530000Y-102805000D03*
%TO.P,U5,3,GND*%
%TO.N,-VDC*%
X169070000Y-102805000D03*
%TO.P,U5,4,IN_B*%
%TO.N,Net-(U1-IN_A)*%
X171610000Y-102805000D03*
%TO.P,U5,5,OUT_B*%
%TO.N,Net-(U5-OUT_B)*%
X171610000Y-95185000D03*
%TO.P,U5,6,V+*%
%TO.N,15V_HV*%
X169070000Y-95185000D03*
%TO.P,U5,7,OUT_A*%
%TO.N,Net-(U5-OUT_A)*%
X166530000Y-95185000D03*
%TO.P,U5,8,EN_B*%
%TO.N,15V_HV*%
X163990000Y-95185000D03*
%TD*%
D18*
%TO.N,-VDC*%
X150250000Y-87250000D03*
X128750000Y-90750000D03*
X140000000Y-104000000D03*
X136250000Y-107000000D03*
X131400000Y-105400000D03*
X140750000Y-104000000D03*
X167500000Y-106000000D03*
X130800000Y-98000000D03*
X142500000Y-107000000D03*
X140000000Y-106250000D03*
X129500000Y-92250000D03*
X133900000Y-107000000D03*
X131337500Y-106112500D03*
X167500000Y-104500000D03*
X165500000Y-106000000D03*
X130000000Y-98000000D03*
X162750000Y-98500000D03*
X150250000Y-88250000D03*
X142500000Y-106250000D03*
X133900000Y-105500000D03*
X142500000Y-104000000D03*
X141750000Y-104000000D03*
X162750000Y-99250000D03*
X167500000Y-107500000D03*
X133850000Y-106250000D03*
X128000000Y-97250000D03*
X128750000Y-88500000D03*
X151000000Y-88250000D03*
X165250000Y-100750000D03*
X128000000Y-88500000D03*
X140000000Y-107000000D03*
X151750000Y-88250000D03*
X151000000Y-86500000D03*
X129500000Y-91500000D03*
X151750000Y-86500000D03*
X165500000Y-105250000D03*
X165250000Y-101500000D03*
X130800000Y-97200000D03*
X167500000Y-106750000D03*
X162750000Y-100750000D03*
X129750000Y-105675000D03*
X128000000Y-87750000D03*
X128750000Y-89960000D03*
X150250000Y-86500000D03*
X162750000Y-101500000D03*
X167500000Y-105250000D03*
X142500000Y-104750000D03*
X136250000Y-105500000D03*
X142500000Y-105500000D03*
X136250000Y-106250000D03*
X165500000Y-104500000D03*
X165250000Y-98500000D03*
X140000000Y-104750000D03*
X128750000Y-89250000D03*
X165250000Y-99250000D03*
X162750000Y-100000000D03*
X165250000Y-100000000D03*
X140000000Y-105500000D03*
X130000000Y-97250000D03*
X165500000Y-107500000D03*
X129500000Y-90750000D03*
X129000000Y-97250000D03*
X165500000Y-106750000D03*
%TO.N,5V_HV*%
X129700000Y-106945000D03*
X129750000Y-99325000D03*
%TO.N,GND*%
X116000000Y-105500000D03*
X119000000Y-97000000D03*
X115000000Y-97000000D03*
X115250000Y-105500000D03*
X117750000Y-97000000D03*
X116500000Y-98000000D03*
X116500000Y-96000000D03*
%TO.N,+5V*%
X117750000Y-106945000D03*
X117500671Y-98998998D03*
%TO.N,Net-(D3-A)*%
X134143750Y-91606250D03*
X133750000Y-88250000D03*
%TD*%
D19*
%TO.N,5V_HV*%
X129750000Y-99325000D02*
X128400000Y-100675000D01*
X128400000Y-100675000D02*
X128400000Y-105645000D01*
X128400000Y-105645000D02*
X129700000Y-106945000D01*
%TO.N,+5V*%
X117500671Y-98998998D02*
X117750000Y-99248327D01*
X117750000Y-99248327D02*
X117750000Y-106945000D01*
%TO.N,Net-(D3-A)*%
X133750000Y-88250000D02*
X133750000Y-91212500D01*
X133750000Y-91212500D02*
X134143750Y-91606250D01*
%TD*%
%TA.AperFunction,Conductor*%
%TO.N,Net-(J2-Pin_1)*%
G36*
X170002702Y-75500617D02*
G01*
X170386771Y-75517386D01*
X170397506Y-75518326D01*
X170775971Y-75568152D01*
X170786597Y-75570025D01*
X171159284Y-75652648D01*
X171169710Y-75655442D01*
X171533765Y-75770227D01*
X171543911Y-75773920D01*
X171896578Y-75920000D01*
X171906369Y-75924566D01*
X172244942Y-76100816D01*
X172254310Y-76106224D01*
X172576244Y-76311318D01*
X172585105Y-76317523D01*
X172887930Y-76549889D01*
X172896217Y-76556843D01*
X173177635Y-76814715D01*
X173185284Y-76822364D01*
X173443156Y-77103782D01*
X173450110Y-77112069D01*
X173682476Y-77414894D01*
X173688681Y-77423755D01*
X173893775Y-77745689D01*
X173899183Y-77755057D01*
X174075430Y-78093623D01*
X174080002Y-78103427D01*
X174226075Y-78456078D01*
X174229775Y-78466244D01*
X174344554Y-78830278D01*
X174347354Y-78840727D01*
X174429971Y-79213389D01*
X174431849Y-79224042D01*
X174481671Y-79602473D01*
X174482614Y-79613249D01*
X174499382Y-79997297D01*
X174499500Y-80002706D01*
X174499500Y-80092710D01*
X174533571Y-80274973D01*
X174533572Y-80274975D01*
X174600551Y-80447869D01*
X174600553Y-80447875D01*
X174698161Y-80605517D01*
X174698163Y-80605519D01*
X174823080Y-80742546D01*
X174950728Y-80838941D01*
X174992362Y-80895047D01*
X175000000Y-80937893D01*
X175000000Y-87995572D01*
X174999684Y-88004418D01*
X174980275Y-88275785D01*
X174977757Y-88293297D01*
X174920872Y-88554794D01*
X174915888Y-88571770D01*
X174822361Y-88822524D01*
X174815011Y-88838617D01*
X174686758Y-89073496D01*
X174677193Y-89088380D01*
X174516811Y-89302624D01*
X174505225Y-89315994D01*
X174315994Y-89505225D01*
X174302624Y-89516811D01*
X174088380Y-89677193D01*
X174073496Y-89686758D01*
X173838617Y-89815011D01*
X173822524Y-89822361D01*
X173571770Y-89915888D01*
X173554794Y-89920872D01*
X173293297Y-89977757D01*
X173275785Y-89980275D01*
X173004418Y-89999684D01*
X172995572Y-90000000D01*
X162004428Y-90000000D01*
X161995582Y-89999684D01*
X161724214Y-89980275D01*
X161706702Y-89977757D01*
X161445205Y-89920872D01*
X161428229Y-89915888D01*
X161177475Y-89822361D01*
X161161382Y-89815011D01*
X160926503Y-89686758D01*
X160911619Y-89677193D01*
X160697375Y-89516811D01*
X160684005Y-89505225D01*
X160494774Y-89315994D01*
X160483188Y-89302624D01*
X160322802Y-89088375D01*
X160313244Y-89073501D01*
X160184987Y-88838616D01*
X160177638Y-88822524D01*
X160084108Y-88571762D01*
X160079129Y-88554803D01*
X160022241Y-88293291D01*
X160019724Y-88275785D01*
X160000316Y-88004418D01*
X160000000Y-87995572D01*
X160000000Y-77004427D01*
X160000316Y-76995581D01*
X160008021Y-76887852D01*
X160019724Y-76724207D01*
X160022240Y-76706710D01*
X160079130Y-76445192D01*
X160084107Y-76428241D01*
X160177640Y-76177470D01*
X160184985Y-76161388D01*
X160313248Y-75926491D01*
X160322798Y-75911630D01*
X160483195Y-75697366D01*
X160494761Y-75684018D01*
X160641963Y-75536816D01*
X160703284Y-75503334D01*
X160729642Y-75500500D01*
X169934108Y-75500500D01*
X169997294Y-75500500D01*
X170002702Y-75500617D01*
G37*
%TD.AperFunction*%
%TD*%
%TA.AperFunction,Conductor*%
%TO.N,GND*%
G36*
X118087397Y-75520185D02*
G01*
X118108039Y-75536819D01*
X118255225Y-75684005D01*
X118266811Y-75697375D01*
X118427193Y-75911619D01*
X118436758Y-75926503D01*
X118565011Y-76161382D01*
X118572361Y-76177475D01*
X118665888Y-76428229D01*
X118670872Y-76445205D01*
X118727757Y-76706702D01*
X118730275Y-76724214D01*
X118749684Y-76995581D01*
X118750000Y-77004427D01*
X118750000Y-85605399D01*
X118768446Y-85861693D01*
X118823402Y-86112701D01*
X118823404Y-86112706D01*
X118913740Y-86353261D01*
X119037593Y-86578401D01*
X119192410Y-86783485D01*
X119375000Y-86964286D01*
X119551246Y-87138804D01*
X119562965Y-87152206D01*
X119707031Y-87343049D01*
X119716709Y-87357991D01*
X119831956Y-87567486D01*
X119839396Y-87583661D01*
X119923458Y-87807510D01*
X119928504Y-87824582D01*
X119979645Y-88058163D01*
X119982194Y-88075782D01*
X119999680Y-88318726D01*
X120000000Y-88327628D01*
X120000000Y-107995572D01*
X119999684Y-108004418D01*
X119980275Y-108275785D01*
X119977757Y-108293297D01*
X119920872Y-108554794D01*
X119915888Y-108571770D01*
X119822361Y-108822524D01*
X119815011Y-108838617D01*
X119686758Y-109073496D01*
X119677193Y-109088380D01*
X119516811Y-109302624D01*
X119505226Y-109315994D01*
X119358037Y-109463182D01*
X119296717Y-109496666D01*
X119270358Y-109499500D01*
X100729642Y-109499500D01*
X100662603Y-109479815D01*
X100641961Y-109463181D01*
X100494774Y-109315994D01*
X100483188Y-109302624D01*
X100322802Y-109088375D01*
X100313244Y-109073501D01*
X100184987Y-108838616D01*
X100177638Y-108822524D01*
X100084108Y-108571762D01*
X100079129Y-108554803D01*
X100022241Y-108293291D01*
X100019724Y-108275785D01*
X100000316Y-108004418D01*
X100000000Y-107995572D01*
X100000000Y-104878754D01*
X108199500Y-104878754D01*
X108199500Y-105121245D01*
X108237432Y-105360736D01*
X108312360Y-105591344D01*
X108422448Y-105807401D01*
X108564966Y-106003562D01*
X108564970Y-106003567D01*
X108736432Y-106175029D01*
X108736437Y-106175033D01*
X108907539Y-106299345D01*
X108932602Y-106317554D01*
X109148653Y-106427638D01*
X109148655Y-106427639D01*
X109263959Y-106465103D01*
X109379265Y-106502568D01*
X109490186Y-106520136D01*
X109618755Y-106540500D01*
X109618760Y-106540500D01*
X111381245Y-106540500D01*
X111497347Y-106522110D01*
X111620735Y-106502568D01*
X111851347Y-106427638D01*
X112067398Y-106317554D01*
X112263569Y-106175028D01*
X112435028Y-106003569D01*
X112577554Y-105807398D01*
X112687638Y-105591347D01*
X112762568Y-105360735D01*
X112782110Y-105237347D01*
X112800500Y-105121245D01*
X112800500Y-104878754D01*
X112778432Y-104739431D01*
X112762568Y-104639265D01*
X112687638Y-104408653D01*
X112577554Y-104192602D01*
X112559345Y-104167539D01*
X112435033Y-103996437D01*
X112435029Y-103996432D01*
X112263567Y-103824970D01*
X112263562Y-103824966D01*
X112067401Y-103682448D01*
X112067400Y-103682447D01*
X112067398Y-103682446D01*
X111959372Y-103627404D01*
X111851344Y-103572360D01*
X111620736Y-103497432D01*
X111381245Y-103459500D01*
X111381240Y-103459500D01*
X109618760Y-103459500D01*
X109618755Y-103459500D01*
X109379263Y-103497432D01*
X109148655Y-103572360D01*
X108932598Y-103682448D01*
X108736437Y-103824966D01*
X108736432Y-103824970D01*
X108564970Y-103996432D01*
X108564966Y-103996437D01*
X108422448Y-104192598D01*
X108312360Y-104408655D01*
X108237432Y-104639263D01*
X108199500Y-104878754D01*
X100000000Y-104878754D01*
X100000000Y-99798754D01*
X108199500Y-99798754D01*
X108199500Y-100041245D01*
X108237432Y-100280736D01*
X108312360Y-100511344D01*
X108422448Y-100727401D01*
X108564966Y-100923562D01*
X108564970Y-100923567D01*
X108736432Y-101095029D01*
X108736437Y-101095033D01*
X108907539Y-101219345D01*
X108932602Y-101237554D01*
X109148653Y-101347638D01*
X109148655Y-101347639D01*
X109263959Y-101385103D01*
X109379265Y-101422568D01*
X109490186Y-101440136D01*
X109618755Y-101460500D01*
X109618760Y-101460500D01*
X111381245Y-101460500D01*
X111497347Y-101442110D01*
X111620735Y-101422568D01*
X111851347Y-101347638D01*
X112067398Y-101237554D01*
X112263569Y-101095028D01*
X112435028Y-100923569D01*
X112577554Y-100727398D01*
X112687638Y-100511347D01*
X112762568Y-100280735D01*
X112782110Y-100157347D01*
X112800500Y-100041245D01*
X112800500Y-99798754D01*
X112772312Y-99620787D01*
X112762568Y-99559265D01*
X112687638Y-99328653D01*
X112577554Y-99112602D01*
X112552298Y-99077840D01*
X112486263Y-98986949D01*
X112437731Y-98920151D01*
X116700171Y-98920151D01*
X116700171Y-99077844D01*
X116730932Y-99232487D01*
X116730935Y-99232499D01*
X116791273Y-99378170D01*
X116791280Y-99378183D01*
X116878880Y-99509285D01*
X116878881Y-99509286D01*
X116878882Y-99509287D01*
X116963182Y-99593587D01*
X116996666Y-99654908D01*
X116999500Y-99681267D01*
X116999500Y-106640396D01*
X116990062Y-106687844D01*
X116980263Y-106711503D01*
X116980262Y-106711506D01*
X116980260Y-106711511D01*
X116949500Y-106866153D01*
X116949500Y-107023846D01*
X116980261Y-107178489D01*
X116980264Y-107178501D01*
X117040602Y-107324172D01*
X117040609Y-107324185D01*
X117128210Y-107455288D01*
X117128213Y-107455292D01*
X117239707Y-107566786D01*
X117239711Y-107566789D01*
X117370814Y-107654390D01*
X117370827Y-107654397D01*
X117516498Y-107714735D01*
X117516503Y-107714737D01*
X117671153Y-107745499D01*
X117671156Y-107745500D01*
X117671158Y-107745500D01*
X117828844Y-107745500D01*
X117828845Y-107745499D01*
X117983497Y-107714737D01*
X118129179Y-107654394D01*
X118260289Y-107566789D01*
X118371789Y-107455289D01*
X118459394Y-107324179D01*
X118519737Y-107178497D01*
X118550500Y-107023842D01*
X118550500Y-106866158D01*
X118550500Y-106866155D01*
X118550499Y-106866153D01*
X118519739Y-106711511D01*
X118519738Y-106711508D01*
X118519737Y-106711503D01*
X118509937Y-106687844D01*
X118500500Y-106640396D01*
X118500500Y-99174406D01*
X118471659Y-99029419D01*
X118471658Y-99029418D01*
X118471658Y-99029414D01*
X118471656Y-99029409D01*
X118415087Y-98892838D01*
X118415080Y-98892825D01*
X118332951Y-98769911D01*
X118332948Y-98769907D01*
X118246743Y-98683702D01*
X118219863Y-98643474D01*
X118210063Y-98619815D01*
X118122460Y-98488709D01*
X118122457Y-98488705D01*
X118010963Y-98377211D01*
X118010959Y-98377208D01*
X117879856Y-98289607D01*
X117879843Y-98289600D01*
X117734172Y-98229262D01*
X117734160Y-98229259D01*
X117579516Y-98198498D01*
X117579513Y-98198498D01*
X117421829Y-98198498D01*
X117421826Y-98198498D01*
X117267181Y-98229259D01*
X117267169Y-98229262D01*
X117121498Y-98289600D01*
X117121485Y-98289607D01*
X116990382Y-98377208D01*
X116990378Y-98377211D01*
X116878884Y-98488705D01*
X116878881Y-98488709D01*
X116791280Y-98619812D01*
X116791273Y-98619825D01*
X116730935Y-98765496D01*
X116730932Y-98765508D01*
X116700171Y-98920151D01*
X112437731Y-98920151D01*
X112435033Y-98916437D01*
X112435029Y-98916432D01*
X112263567Y-98744970D01*
X112263562Y-98744966D01*
X112067401Y-98602448D01*
X112067400Y-98602447D01*
X112067398Y-98602446D01*
X111959372Y-98547404D01*
X111851344Y-98492360D01*
X111620736Y-98417432D01*
X111381245Y-98379500D01*
X111381240Y-98379500D01*
X109618760Y-98379500D01*
X109618755Y-98379500D01*
X109379263Y-98417432D01*
X109148655Y-98492360D01*
X108932598Y-98602448D01*
X108736437Y-98744966D01*
X108736432Y-98744970D01*
X108564970Y-98916432D01*
X108564966Y-98916437D01*
X108422448Y-99112598D01*
X108312360Y-99328655D01*
X108237432Y-99559263D01*
X108199500Y-99798754D01*
X100000000Y-99798754D01*
X100000000Y-94718754D01*
X108199500Y-94718754D01*
X108199500Y-94961245D01*
X108237432Y-95200736D01*
X108312360Y-95431344D01*
X108422448Y-95647401D01*
X108564966Y-95843562D01*
X108564970Y-95843567D01*
X108736432Y-96015029D01*
X108736437Y-96015033D01*
X108907539Y-96139345D01*
X108932602Y-96157554D01*
X109148653Y-96267638D01*
X109148655Y-96267639D01*
X109263959Y-96305103D01*
X109379265Y-96342568D01*
X109490186Y-96360136D01*
X109618755Y-96380500D01*
X109618760Y-96380500D01*
X111381245Y-96380500D01*
X111497347Y-96362110D01*
X111620735Y-96342568D01*
X111851347Y-96267638D01*
X112067398Y-96157554D01*
X112263569Y-96015028D01*
X112435028Y-95843569D01*
X112577554Y-95647398D01*
X112687638Y-95431347D01*
X112762568Y-95200735D01*
X112782110Y-95077347D01*
X112800500Y-94961245D01*
X112800500Y-94718754D01*
X112778432Y-94579431D01*
X112762568Y-94479265D01*
X112687638Y-94248653D01*
X112577554Y-94032602D01*
X112559345Y-94007539D01*
X112435033Y-93836437D01*
X112435029Y-93836432D01*
X112263567Y-93664970D01*
X112263562Y-93664966D01*
X112067401Y-93522448D01*
X112067400Y-93522447D01*
X112067398Y-93522446D01*
X111959372Y-93467404D01*
X111851344Y-93412360D01*
X111620736Y-93337432D01*
X111381245Y-93299500D01*
X111381240Y-93299500D01*
X109618760Y-93299500D01*
X109618755Y-93299500D01*
X109379263Y-93337432D01*
X109148655Y-93412360D01*
X108932598Y-93522448D01*
X108736437Y-93664966D01*
X108736432Y-93664970D01*
X108564970Y-93836432D01*
X108564966Y-93836437D01*
X108422448Y-94032598D01*
X108312360Y-94248655D01*
X108237432Y-94479263D01*
X108199500Y-94718754D01*
X100000000Y-94718754D01*
X100000000Y-89638754D01*
X108199500Y-89638754D01*
X108199500Y-89881245D01*
X108237432Y-90120736D01*
X108312360Y-90351344D01*
X108422448Y-90567401D01*
X108564966Y-90763562D01*
X108564970Y-90763567D01*
X108736432Y-90935029D01*
X108736437Y-90935033D01*
X108907539Y-91059345D01*
X108932602Y-91077554D01*
X109148653Y-91187638D01*
X109148655Y-91187639D01*
X109263959Y-91225103D01*
X109379265Y-91262568D01*
X109490186Y-91280136D01*
X109618755Y-91300500D01*
X109618760Y-91300500D01*
X111381245Y-91300500D01*
X111497347Y-91282110D01*
X111620735Y-91262568D01*
X111851347Y-91187638D01*
X112067398Y-91077554D01*
X112263569Y-90935028D01*
X112435028Y-90763569D01*
X112577554Y-90567398D01*
X112687638Y-90351347D01*
X112762568Y-90120735D01*
X112782110Y-89997347D01*
X112800500Y-89881245D01*
X112800500Y-89638754D01*
X112778432Y-89499431D01*
X112762568Y-89399265D01*
X112687638Y-89168653D01*
X112577554Y-88952602D01*
X112559345Y-88927539D01*
X112435033Y-88756437D01*
X112435029Y-88756432D01*
X112263567Y-88584970D01*
X112263562Y-88584966D01*
X112067401Y-88442448D01*
X112067400Y-88442447D01*
X112067398Y-88442446D01*
X111959372Y-88387404D01*
X111851344Y-88332360D01*
X111620736Y-88257432D01*
X111381245Y-88219500D01*
X111381240Y-88219500D01*
X109618760Y-88219500D01*
X109618755Y-88219500D01*
X109379263Y-88257432D01*
X109148655Y-88332360D01*
X108932598Y-88442448D01*
X108736437Y-88584966D01*
X108736432Y-88584970D01*
X108564970Y-88756432D01*
X108564966Y-88756437D01*
X108422448Y-88952598D01*
X108312360Y-89168655D01*
X108237432Y-89399263D01*
X108199500Y-89638754D01*
X100000000Y-89638754D01*
X100000000Y-84430000D01*
X108220400Y-84430000D01*
X109845879Y-84430000D01*
X109826901Y-84475818D01*
X109800000Y-84611056D01*
X109800000Y-84748944D01*
X109826901Y-84884182D01*
X109845879Y-84930000D01*
X108220400Y-84930000D01*
X108237919Y-85040618D01*
X108312827Y-85271159D01*
X108422874Y-85487136D01*
X108565356Y-85683245D01*
X108736754Y-85854643D01*
X108932863Y-85997125D01*
X109148840Y-86107172D01*
X109379381Y-86182079D01*
X109618800Y-86220000D01*
X110250000Y-86220000D01*
X110250000Y-85334120D01*
X110295818Y-85353099D01*
X110431056Y-85380000D01*
X110568944Y-85380000D01*
X110704182Y-85353099D01*
X110750000Y-85334120D01*
X110750000Y-86220000D01*
X111381200Y-86220000D01*
X111620618Y-86182079D01*
X111851159Y-86107172D01*
X112067136Y-85997125D01*
X112263245Y-85854643D01*
X112434643Y-85683245D01*
X112577125Y-85487136D01*
X112687172Y-85271159D01*
X112762080Y-85040618D01*
X112779600Y-84930000D01*
X111154121Y-84930000D01*
X111173099Y-84884182D01*
X111200000Y-84748944D01*
X111200000Y-84611056D01*
X111173099Y-84475818D01*
X111154121Y-84430000D01*
X112779600Y-84430000D01*
X112762080Y-84319381D01*
X112687172Y-84088840D01*
X112577125Y-83872863D01*
X112434643Y-83676754D01*
X112263245Y-83505356D01*
X112067136Y-83362874D01*
X111851159Y-83252827D01*
X111620618Y-83177920D01*
X111381200Y-83140000D01*
X110750000Y-83140000D01*
X110750000Y-84025879D01*
X110704182Y-84006901D01*
X110568944Y-83980000D01*
X110431056Y-83980000D01*
X110295818Y-84006901D01*
X110250000Y-84025879D01*
X110250000Y-83140000D01*
X109618800Y-83140000D01*
X109379381Y-83177920D01*
X109148840Y-83252827D01*
X108932863Y-83362874D01*
X108736754Y-83505356D01*
X108565356Y-83676754D01*
X108422874Y-83872863D01*
X108312827Y-84088840D01*
X108237919Y-84319381D01*
X108220400Y-84430000D01*
X100000000Y-84430000D01*
X100000000Y-78759982D01*
X108199500Y-78759982D01*
X108199500Y-80440017D01*
X108210000Y-80542796D01*
X108210001Y-80542798D01*
X108265186Y-80709335D01*
X108357288Y-80858656D01*
X108481344Y-80982712D01*
X108630665Y-81074814D01*
X108797202Y-81129999D01*
X108899990Y-81140500D01*
X108899995Y-81140500D01*
X112100005Y-81140500D01*
X112100010Y-81140500D01*
X112202798Y-81129999D01*
X112369335Y-81074814D01*
X112518656Y-80982712D01*
X112642712Y-80858656D01*
X112734814Y-80709335D01*
X112789999Y-80542798D01*
X112800500Y-80440010D01*
X112800500Y-78759990D01*
X112789999Y-78657202D01*
X112734814Y-78490665D01*
X112642712Y-78341344D01*
X112518656Y-78217288D01*
X112369335Y-78125186D01*
X112202798Y-78070001D01*
X112202796Y-78070000D01*
X112100017Y-78059500D01*
X112100010Y-78059500D01*
X108899990Y-78059500D01*
X108899982Y-78059500D01*
X108797203Y-78070000D01*
X108797202Y-78070001D01*
X108714669Y-78097349D01*
X108630667Y-78125185D01*
X108630662Y-78125187D01*
X108481342Y-78217289D01*
X108357289Y-78341342D01*
X108265187Y-78490662D01*
X108265186Y-78490665D01*
X108210001Y-78657202D01*
X108210001Y-78657203D01*
X108210000Y-78657203D01*
X108199500Y-78759982D01*
X100000000Y-78759982D01*
X100000000Y-77004427D01*
X100000316Y-76995581D01*
X100019724Y-76724214D01*
X100022240Y-76706710D01*
X100079130Y-76445192D01*
X100084107Y-76428241D01*
X100177640Y-76177470D01*
X100184985Y-76161388D01*
X100313248Y-75926491D01*
X100322798Y-75911630D01*
X100483195Y-75697366D01*
X100494761Y-75684018D01*
X100641963Y-75536816D01*
X100703284Y-75503334D01*
X100729642Y-75500500D01*
X118020358Y-75500500D01*
X118087397Y-75520185D01*
G37*
%TD.AperFunction*%
%TD*%
%TA.AperFunction,Conductor*%
%TO.N,-VDC*%
G36*
X159827954Y-75520185D02*
G01*
X159873709Y-75572989D01*
X159883653Y-75642147D01*
X159869747Y-75683927D01*
X159741323Y-75919117D01*
X159740119Y-75921523D01*
X159725172Y-75951382D01*
X159725166Y-75951393D01*
X159725166Y-75951395D01*
X159717827Y-75967461D01*
X159704013Y-76000811D01*
X159610480Y-76251582D01*
X159599079Y-76285836D01*
X159594102Y-76302789D01*
X159585181Y-76337740D01*
X159528293Y-76599249D01*
X159521884Y-76634776D01*
X159519369Y-76652260D01*
X159515512Y-76688133D01*
X159496103Y-76959530D01*
X159495139Y-76977501D01*
X159494820Y-76986424D01*
X159494500Y-77004407D01*
X159494500Y-87995591D01*
X159494820Y-88013574D01*
X159495139Y-88022497D01*
X159496103Y-88040469D01*
X159515511Y-88311836D01*
X159519370Y-88347738D01*
X159521883Y-88365216D01*
X159528296Y-88400760D01*
X159585178Y-88662246D01*
X159594102Y-88697208D01*
X159599082Y-88714171D01*
X159610472Y-88748395D01*
X159704017Y-88999198D01*
X159717820Y-89032521D01*
X159725159Y-89048591D01*
X159725167Y-89048608D01*
X159725168Y-89048609D01*
X159741320Y-89080876D01*
X159869577Y-89315761D01*
X159887978Y-89346776D01*
X159897536Y-89361650D01*
X159918129Y-89391311D01*
X159918133Y-89391316D01*
X160078528Y-89605577D01*
X160101158Y-89633659D01*
X160112756Y-89647042D01*
X160137335Y-89673439D01*
X160326559Y-89862663D01*
X160352956Y-89887242D01*
X160366339Y-89898840D01*
X160394421Y-89921470D01*
X160394429Y-89921476D01*
X160394439Y-89921484D01*
X160608683Y-90081866D01*
X160608686Y-90081868D01*
X160638331Y-90102451D01*
X160644405Y-90106353D01*
X160653216Y-90112016D01*
X160684244Y-90130425D01*
X160684250Y-90130428D01*
X160684258Y-90130433D01*
X160776865Y-90180999D01*
X160919123Y-90258678D01*
X160935249Y-90266751D01*
X160951375Y-90274824D01*
X160967467Y-90282173D01*
X161000807Y-90295984D01*
X161000816Y-90295987D01*
X161000820Y-90295989D01*
X161251574Y-90389516D01*
X161251594Y-90389522D01*
X161251595Y-90389523D01*
X161285819Y-90400913D01*
X161285827Y-90400915D01*
X161285829Y-90400916D01*
X161302805Y-90405900D01*
X161326821Y-90412029D01*
X161337761Y-90414822D01*
X161599241Y-90471703D01*
X161599245Y-90471703D01*
X161599251Y-90471705D01*
X161634758Y-90478111D01*
X161652270Y-90480629D01*
X161652291Y-90480632D01*
X161688137Y-90484486D01*
X161688151Y-90484487D01*
X161959519Y-90503896D01*
X161977536Y-90504862D01*
X161986382Y-90505178D01*
X161986414Y-90505178D01*
X161986426Y-90505179D01*
X162004409Y-90505500D01*
X162004428Y-90505500D01*
X172995591Y-90505500D01*
X173013573Y-90505179D01*
X173013583Y-90505178D01*
X173013618Y-90505178D01*
X173022464Y-90504862D01*
X173040481Y-90503896D01*
X173311848Y-90484487D01*
X173311849Y-90484486D01*
X173311861Y-90484486D01*
X173347707Y-90480632D01*
X173347724Y-90480629D01*
X173347729Y-90480629D01*
X173365241Y-90478111D01*
X173400748Y-90471705D01*
X173437287Y-90463756D01*
X173662237Y-90414822D01*
X173662245Y-90414820D01*
X173697194Y-90405900D01*
X173714170Y-90400916D01*
X173748425Y-90389516D01*
X173999179Y-90295989D01*
X174032530Y-90282174D01*
X174048623Y-90274824D01*
X174080876Y-90258678D01*
X174315755Y-90130425D01*
X174346783Y-90112016D01*
X174361667Y-90102451D01*
X174391316Y-90081866D01*
X174605560Y-89921484D01*
X174633670Y-89898831D01*
X174647040Y-89887245D01*
X174673436Y-89862667D01*
X174788319Y-89747784D01*
X174849642Y-89714299D01*
X174919334Y-89719283D01*
X174975267Y-89761155D01*
X174999684Y-89826619D01*
X175000000Y-89835465D01*
X175000000Y-104062105D01*
X174980315Y-104129144D01*
X174950727Y-104161059D01*
X174823077Y-104257455D01*
X174698163Y-104394480D01*
X174698161Y-104394482D01*
X174600553Y-104552124D01*
X174600551Y-104552130D01*
X174533572Y-104725024D01*
X174499500Y-104907292D01*
X174499500Y-104997293D01*
X174499382Y-105002702D01*
X174482614Y-105386750D01*
X174481671Y-105397526D01*
X174431849Y-105775957D01*
X174429971Y-105786610D01*
X174347354Y-106159272D01*
X174344554Y-106169721D01*
X174229775Y-106533755D01*
X174226075Y-106543921D01*
X174080002Y-106896572D01*
X174075430Y-106906376D01*
X173899183Y-107244942D01*
X173893775Y-107254310D01*
X173688681Y-107576244D01*
X173682476Y-107585105D01*
X173450110Y-107887930D01*
X173443156Y-107896217D01*
X173185284Y-108177635D01*
X173177635Y-108185284D01*
X172896217Y-108443156D01*
X172887930Y-108450110D01*
X172585105Y-108682476D01*
X172576244Y-108688681D01*
X172254310Y-108893775D01*
X172244942Y-108899183D01*
X171906376Y-109075430D01*
X171896572Y-109080002D01*
X171543921Y-109226075D01*
X171533755Y-109229775D01*
X171169721Y-109344554D01*
X171159272Y-109347354D01*
X170786610Y-109429971D01*
X170775957Y-109431849D01*
X170397526Y-109481671D01*
X170386750Y-109482614D01*
X170002703Y-109499382D01*
X169997294Y-109499500D01*
X128229642Y-109499500D01*
X128200201Y-109490855D01*
X128170215Y-109484332D01*
X128165199Y-109480577D01*
X128162603Y-109479815D01*
X128141961Y-109463181D01*
X127994774Y-109315994D01*
X127983188Y-109302624D01*
X127822802Y-109088375D01*
X127813244Y-109073501D01*
X127684987Y-108838616D01*
X127677638Y-108822524D01*
X127626992Y-108686738D01*
X127584108Y-108571762D01*
X127579129Y-108554803D01*
X127522241Y-108293291D01*
X127519724Y-108275785D01*
X127513251Y-108185284D01*
X127500316Y-108004418D01*
X127500000Y-107995572D01*
X127500000Y-106056034D01*
X127509730Y-106022896D01*
X127519316Y-105989571D01*
X127519585Y-105989335D01*
X127519685Y-105988995D01*
X127545761Y-105966399D01*
X127571867Y-105943526D01*
X127572219Y-105943473D01*
X127572489Y-105943240D01*
X127606793Y-105938307D01*
X127640970Y-105933201D01*
X127641293Y-105933346D01*
X127641647Y-105933296D01*
X127673141Y-105947679D01*
X127704684Y-105961874D01*
X127704950Y-105962205D01*
X127705203Y-105962321D01*
X127727944Y-105988420D01*
X127733368Y-105996759D01*
X127734916Y-106000495D01*
X127767813Y-106049729D01*
X127768249Y-106050382D01*
X127768289Y-106050443D01*
X127817046Y-106123414D01*
X127817052Y-106123421D01*
X128953927Y-107260295D01*
X128980806Y-107300521D01*
X128990606Y-107324179D01*
X128990607Y-107324181D01*
X129078207Y-107455284D01*
X129078213Y-107455292D01*
X129189707Y-107566786D01*
X129189711Y-107566789D01*
X129320814Y-107654390D01*
X129320827Y-107654397D01*
X129466498Y-107714735D01*
X129466503Y-107714737D01*
X129621153Y-107745499D01*
X129621156Y-107745500D01*
X129621158Y-107745500D01*
X129778844Y-107745500D01*
X129778845Y-107745499D01*
X129933497Y-107714737D01*
X130079179Y-107654394D01*
X130210289Y-107566789D01*
X130321789Y-107455289D01*
X130409394Y-107324179D01*
X130469737Y-107178497D01*
X130500500Y-107023842D01*
X130500500Y-106866158D01*
X130500500Y-106866155D01*
X130500499Y-106866153D01*
X130469738Y-106711510D01*
X130469737Y-106711503D01*
X130469735Y-106711498D01*
X130409397Y-106565827D01*
X130409390Y-106565814D01*
X130321789Y-106434711D01*
X130321786Y-106434707D01*
X130210292Y-106323213D01*
X130210284Y-106323207D01*
X130079181Y-106235607D01*
X130079179Y-106235606D01*
X130055521Y-106225806D01*
X130015295Y-106198927D01*
X129186819Y-105370451D01*
X129153334Y-105309128D01*
X129150500Y-105282770D01*
X129150500Y-102204983D01*
X162689500Y-102204983D01*
X162689500Y-103405001D01*
X162689501Y-103405018D01*
X162700000Y-103507796D01*
X162700001Y-103507799D01*
X162716818Y-103558548D01*
X162755186Y-103674334D01*
X162847288Y-103823656D01*
X162971344Y-103947712D01*
X163120666Y-104039814D01*
X163287203Y-104094999D01*
X163389991Y-104105500D01*
X164590008Y-104105499D01*
X164692797Y-104094999D01*
X164859334Y-104039814D01*
X165008656Y-103947712D01*
X165132712Y-103823656D01*
X165224814Y-103674334D01*
X165251955Y-103592427D01*
X165291726Y-103534984D01*
X165356242Y-103508161D01*
X165425018Y-103520476D01*
X165469977Y-103558547D01*
X165538030Y-103652213D01*
X165538034Y-103652219D01*
X165682786Y-103796971D01*
X165837749Y-103909556D01*
X165848390Y-103917287D01*
X165964607Y-103976503D01*
X166030776Y-104010218D01*
X166030778Y-104010218D01*
X166030781Y-104010220D01*
X166121856Y-104039812D01*
X166225465Y-104073477D01*
X166326557Y-104089488D01*
X166427648Y-104105500D01*
X166427649Y-104105500D01*
X166632351Y-104105500D01*
X166632352Y-104105500D01*
X166834534Y-104073477D01*
X167029219Y-104010220D01*
X167211610Y-103917287D01*
X167340482Y-103823657D01*
X167377213Y-103796971D01*
X167377215Y-103796968D01*
X167377219Y-103796966D01*
X167521966Y-103652219D01*
X167521968Y-103652215D01*
X167521971Y-103652213D01*
X167590021Y-103558548D01*
X167642287Y-103486610D01*
X167735220Y-103304219D01*
X167798477Y-103109534D01*
X167830500Y-102907352D01*
X167830500Y-102702648D01*
X170309500Y-102702648D01*
X170309500Y-102907351D01*
X170341522Y-103109534D01*
X170404781Y-103304223D01*
X170497715Y-103486613D01*
X170618028Y-103652213D01*
X170762786Y-103796971D01*
X170917749Y-103909556D01*
X170928390Y-103917287D01*
X171044607Y-103976503D01*
X171110776Y-104010218D01*
X171110778Y-104010218D01*
X171110781Y-104010220D01*
X171201856Y-104039812D01*
X171305465Y-104073477D01*
X171406557Y-104089488D01*
X171507648Y-104105500D01*
X171507649Y-104105500D01*
X171712351Y-104105500D01*
X171712352Y-104105500D01*
X171914534Y-104073477D01*
X172109219Y-104010220D01*
X172291610Y-103917287D01*
X172420482Y-103823657D01*
X172457213Y-103796971D01*
X172457215Y-103796968D01*
X172457219Y-103796966D01*
X172601966Y-103652219D01*
X172601968Y-103652215D01*
X172601971Y-103652213D01*
X172670021Y-103558548D01*
X172722287Y-103486610D01*
X172815220Y-103304219D01*
X172878477Y-103109534D01*
X172910500Y-102907352D01*
X172910500Y-102702648D01*
X172878477Y-102500466D01*
X172815220Y-102305781D01*
X172815218Y-102305778D01*
X172815218Y-102305776D01*
X172763865Y-102204991D01*
X172722287Y-102123390D01*
X172670021Y-102051451D01*
X172601971Y-101957786D01*
X172457213Y-101813028D01*
X172291613Y-101692715D01*
X172291612Y-101692714D01*
X172291610Y-101692713D01*
X172231898Y-101662288D01*
X172109223Y-101599781D01*
X171914534Y-101536522D01*
X171739995Y-101508878D01*
X171712352Y-101504500D01*
X171507648Y-101504500D01*
X171483329Y-101508351D01*
X171305465Y-101536522D01*
X171110776Y-101599781D01*
X170928386Y-101692715D01*
X170762786Y-101813028D01*
X170618028Y-101957786D01*
X170497715Y-102123386D01*
X170404781Y-102305776D01*
X170341522Y-102500465D01*
X170309500Y-102702648D01*
X167830500Y-102702648D01*
X167798477Y-102500466D01*
X167735220Y-102305781D01*
X167735218Y-102305778D01*
X167735218Y-102305776D01*
X167683865Y-102204991D01*
X167642287Y-102123390D01*
X167590021Y-102051451D01*
X167521971Y-101957786D01*
X167377213Y-101813028D01*
X167211613Y-101692715D01*
X167211612Y-101692714D01*
X167211610Y-101692713D01*
X167151898Y-101662288D01*
X167029223Y-101599781D01*
X166834534Y-101536522D01*
X166659995Y-101508878D01*
X166632352Y-101504500D01*
X166427648Y-101504500D01*
X166403329Y-101508351D01*
X166225465Y-101536522D01*
X166030776Y-101599781D01*
X165848386Y-101692715D01*
X165682786Y-101813028D01*
X165538032Y-101957782D01*
X165538028Y-101957787D01*
X165469978Y-102051451D01*
X165414648Y-102094117D01*
X165345035Y-102100096D01*
X165283240Y-102067490D01*
X165251954Y-102017570D01*
X165232144Y-101957787D01*
X165224814Y-101935666D01*
X165132712Y-101786344D01*
X165008656Y-101662288D01*
X164859334Y-101570186D01*
X164692797Y-101515001D01*
X164692795Y-101515000D01*
X164590010Y-101504500D01*
X163389998Y-101504500D01*
X163389981Y-101504501D01*
X163287203Y-101515000D01*
X163287200Y-101515001D01*
X163120668Y-101570185D01*
X163120663Y-101570187D01*
X162971342Y-101662289D01*
X162847289Y-101786342D01*
X162755187Y-101935663D01*
X162755186Y-101935666D01*
X162700001Y-102102203D01*
X162700001Y-102102204D01*
X162700000Y-102102204D01*
X162689500Y-102204983D01*
X129150500Y-102204983D01*
X129150500Y-101037228D01*
X129170185Y-100970189D01*
X129186815Y-100949551D01*
X130065295Y-100071070D01*
X130105519Y-100044193D01*
X130129179Y-100034394D01*
X130260289Y-99946789D01*
X130371789Y-99835289D01*
X130459394Y-99704179D01*
X130519737Y-99558497D01*
X130550500Y-99403842D01*
X130550500Y-99246158D01*
X130550500Y-99246155D01*
X130550499Y-99246153D01*
X130519738Y-99091510D01*
X130519737Y-99091503D01*
X130485855Y-99009704D01*
X130459397Y-98945827D01*
X130459390Y-98945814D01*
X130371789Y-98814711D01*
X130371786Y-98814707D01*
X130260292Y-98703213D01*
X130260288Y-98703210D01*
X130129185Y-98615609D01*
X130129172Y-98615602D01*
X129983501Y-98555264D01*
X129983489Y-98555261D01*
X129828845Y-98524500D01*
X129828842Y-98524500D01*
X129671158Y-98524500D01*
X129671155Y-98524500D01*
X129516510Y-98555261D01*
X129516498Y-98555264D01*
X129370827Y-98615602D01*
X129370814Y-98615609D01*
X129239711Y-98703210D01*
X129239707Y-98703213D01*
X129128213Y-98814707D01*
X129128207Y-98814715D01*
X129040607Y-98945818D01*
X129040605Y-98945822D01*
X129030805Y-98969480D01*
X129003927Y-99009704D01*
X127817050Y-100196580D01*
X127817044Y-100196588D01*
X127767812Y-100270268D01*
X127767813Y-100270269D01*
X127734918Y-100319500D01*
X127733358Y-100322420D01*
X127732138Y-100323661D01*
X127731532Y-100324569D01*
X127731359Y-100324454D01*
X127684395Y-100372264D01*
X127616258Y-100387724D01*
X127550578Y-100363892D01*
X127508209Y-100308334D01*
X127500000Y-100263966D01*
X127500000Y-95082648D01*
X162689500Y-95082648D01*
X162689500Y-95287351D01*
X162721522Y-95489534D01*
X162784781Y-95684223D01*
X162877715Y-95866613D01*
X162998028Y-96032213D01*
X163142786Y-96176971D01*
X163297749Y-96289556D01*
X163308390Y-96297287D01*
X163424607Y-96356503D01*
X163490776Y-96390218D01*
X163490778Y-96390218D01*
X163490781Y-96390220D01*
X163595137Y-96424127D01*
X163685465Y-96453477D01*
X163786557Y-96469488D01*
X163887648Y-96485500D01*
X163887649Y-96485500D01*
X164092351Y-96485500D01*
X164092352Y-96485500D01*
X164294534Y-96453477D01*
X164489219Y-96390220D01*
X164671610Y-96297287D01*
X164764590Y-96229732D01*
X164837213Y-96176971D01*
X164837215Y-96176968D01*
X164837219Y-96176966D01*
X164981966Y-96032219D01*
X164981968Y-96032215D01*
X164981971Y-96032213D01*
X165102284Y-95866614D01*
X165102285Y-95866613D01*
X165102287Y-95866610D01*
X165149516Y-95773917D01*
X165197489Y-95723123D01*
X165265310Y-95706328D01*
X165331445Y-95728865D01*
X165370485Y-95773919D01*
X165417715Y-95866614D01*
X165538028Y-96032213D01*
X165682786Y-96176971D01*
X165837749Y-96289556D01*
X165848390Y-96297287D01*
X165964607Y-96356503D01*
X166030776Y-96390218D01*
X166030778Y-96390218D01*
X166030781Y-96390220D01*
X166135137Y-96424127D01*
X166225465Y-96453477D01*
X166326557Y-96469488D01*
X166427648Y-96485500D01*
X166427649Y-96485500D01*
X166632351Y-96485500D01*
X166632352Y-96485500D01*
X166834534Y-96453477D01*
X167029219Y-96390220D01*
X167211610Y-96297287D01*
X167304590Y-96229732D01*
X167377213Y-96176971D01*
X167377215Y-96176968D01*
X167377219Y-96176966D01*
X167521966Y-96032219D01*
X167521968Y-96032215D01*
X167521971Y-96032213D01*
X167642284Y-95866614D01*
X167642285Y-95866613D01*
X167642287Y-95866610D01*
X167689516Y-95773917D01*
X167737489Y-95723123D01*
X167805310Y-95706328D01*
X167871445Y-95728865D01*
X167910485Y-95773919D01*
X167957715Y-95866614D01*
X168078028Y-96032213D01*
X168222786Y-96176971D01*
X168377749Y-96289556D01*
X168388390Y-96297287D01*
X168504607Y-96356503D01*
X168570776Y-96390218D01*
X168570778Y-96390218D01*
X168570781Y-96390220D01*
X168675137Y-96424127D01*
X168765465Y-96453477D01*
X168866557Y-96469488D01*
X168967648Y-96485500D01*
X168967649Y-96485500D01*
X169172351Y-96485500D01*
X169172352Y-96485500D01*
X169374534Y-96453477D01*
X169569219Y-96390220D01*
X169751610Y-96297287D01*
X169844590Y-96229732D01*
X169917213Y-96176971D01*
X169917215Y-96176968D01*
X169917219Y-96176966D01*
X170061966Y-96032219D01*
X170061968Y-96032215D01*
X170061971Y-96032213D01*
X170182284Y-95866614D01*
X170182285Y-95866613D01*
X170182287Y-95866610D01*
X170229516Y-95773917D01*
X170277489Y-95723123D01*
X170345310Y-95706328D01*
X170411445Y-95728865D01*
X170450485Y-95773919D01*
X170497715Y-95866614D01*
X170618028Y-96032213D01*
X170762786Y-96176971D01*
X170917749Y-96289556D01*
X170928390Y-96297287D01*
X171044607Y-96356503D01*
X171110776Y-96390218D01*
X171110778Y-96390218D01*
X171110781Y-96390220D01*
X171215137Y-96424127D01*
X171305465Y-96453477D01*
X171406557Y-96469488D01*
X171507648Y-96485500D01*
X171507649Y-96485500D01*
X171712351Y-96485500D01*
X171712352Y-96485500D01*
X171914534Y-96453477D01*
X172109219Y-96390220D01*
X172291610Y-96297287D01*
X172384590Y-96229732D01*
X172457213Y-96176971D01*
X172457215Y-96176968D01*
X172457219Y-96176966D01*
X172601966Y-96032219D01*
X172601968Y-96032215D01*
X172601971Y-96032213D01*
X172654732Y-95959590D01*
X172722287Y-95866610D01*
X172815220Y-95684219D01*
X172878477Y-95489534D01*
X172910500Y-95287352D01*
X172910500Y-95082648D01*
X172878477Y-94880466D01*
X172815220Y-94685781D01*
X172815218Y-94685778D01*
X172815218Y-94685776D01*
X172769515Y-94596080D01*
X172722287Y-94503390D01*
X172714556Y-94492749D01*
X172601971Y-94337786D01*
X172457213Y-94193028D01*
X172291613Y-94072715D01*
X172291612Y-94072714D01*
X172291610Y-94072713D01*
X172234653Y-94043691D01*
X172109223Y-93979781D01*
X171914534Y-93916522D01*
X171739995Y-93888878D01*
X171712352Y-93884500D01*
X171507648Y-93884500D01*
X171483329Y-93888351D01*
X171305465Y-93916522D01*
X171110776Y-93979781D01*
X170928386Y-94072715D01*
X170762786Y-94193028D01*
X170618028Y-94337786D01*
X170497715Y-94503386D01*
X170450485Y-94596080D01*
X170402510Y-94646876D01*
X170334689Y-94663671D01*
X170268554Y-94641134D01*
X170229515Y-94596080D01*
X170228883Y-94594840D01*
X170182287Y-94503390D01*
X170174556Y-94492749D01*
X170061971Y-94337786D01*
X169917213Y-94193028D01*
X169751613Y-94072715D01*
X169751612Y-94072714D01*
X169751610Y-94072713D01*
X169694653Y-94043691D01*
X169569223Y-93979781D01*
X169374534Y-93916522D01*
X169199995Y-93888878D01*
X169172352Y-93884500D01*
X168967648Y-93884500D01*
X168943329Y-93888351D01*
X168765465Y-93916522D01*
X168570776Y-93979781D01*
X168388386Y-94072715D01*
X168222786Y-94193028D01*
X168078028Y-94337786D01*
X167957715Y-94503386D01*
X167910485Y-94596080D01*
X167862510Y-94646876D01*
X167794689Y-94663671D01*
X167728554Y-94641134D01*
X167689515Y-94596080D01*
X167688883Y-94594840D01*
X167642287Y-94503390D01*
X167634556Y-94492749D01*
X167521971Y-94337786D01*
X167377213Y-94193028D01*
X167211613Y-94072715D01*
X167211612Y-94072714D01*
X167211610Y-94072713D01*
X167154653Y-94043691D01*
X167029223Y-93979781D01*
X166834534Y-93916522D01*
X166659995Y-93888878D01*
X166632352Y-93884500D01*
X166427648Y-93884500D01*
X166403329Y-93888351D01*
X166225465Y-93916522D01*
X166030776Y-93979781D01*
X165848386Y-94072715D01*
X165682786Y-94193028D01*
X165538028Y-94337786D01*
X165417715Y-94503386D01*
X165370485Y-94596080D01*
X165322510Y-94646876D01*
X165254689Y-94663671D01*
X165188554Y-94641134D01*
X165149515Y-94596080D01*
X165148883Y-94594840D01*
X165102287Y-94503390D01*
X165094556Y-94492749D01*
X164981971Y-94337786D01*
X164837213Y-94193028D01*
X164671613Y-94072715D01*
X164671612Y-94072714D01*
X164671610Y-94072713D01*
X164614653Y-94043691D01*
X164489223Y-93979781D01*
X164294534Y-93916522D01*
X164119995Y-93888878D01*
X164092352Y-93884500D01*
X163887648Y-93884500D01*
X163863329Y-93888351D01*
X163685465Y-93916522D01*
X163490776Y-93979781D01*
X163308386Y-94072715D01*
X163142786Y-94193028D01*
X162998028Y-94337786D01*
X162877715Y-94503386D01*
X162784781Y-94685776D01*
X162721522Y-94880465D01*
X162689500Y-95082648D01*
X127500000Y-95082648D01*
X127500000Y-88254427D01*
X127500316Y-88245581D01*
X127505639Y-88171153D01*
X132949500Y-88171153D01*
X132949500Y-88328846D01*
X132980261Y-88483489D01*
X132980263Y-88483497D01*
X132990061Y-88507151D01*
X132999500Y-88554604D01*
X132999500Y-91286418D01*
X132999500Y-91286420D01*
X132999499Y-91286420D01*
X133028340Y-91431407D01*
X133028343Y-91431417D01*
X133084914Y-91567992D01*
X133117812Y-91617227D01*
X133117813Y-91617230D01*
X133167046Y-91690914D01*
X133167052Y-91690921D01*
X133397677Y-91921545D01*
X133424556Y-91961771D01*
X133434356Y-91985430D01*
X133434357Y-91985432D01*
X133521960Y-92116538D01*
X133521963Y-92116542D01*
X133633457Y-92228036D01*
X133633461Y-92228039D01*
X133764564Y-92315640D01*
X133764577Y-92315647D01*
X133910248Y-92375985D01*
X133910253Y-92375987D01*
X134064903Y-92406749D01*
X134064906Y-92406750D01*
X134064908Y-92406750D01*
X134222594Y-92406750D01*
X134222595Y-92406749D01*
X134377247Y-92375987D01*
X134522929Y-92315644D01*
X134654039Y-92228039D01*
X134765539Y-92116539D01*
X134853144Y-91985429D01*
X134913487Y-91839747D01*
X134944250Y-91685092D01*
X134944250Y-91527408D01*
X134944250Y-91527405D01*
X134944249Y-91527403D01*
X134913488Y-91372760D01*
X134913487Y-91372753D01*
X134877726Y-91286418D01*
X134853147Y-91227077D01*
X134853140Y-91227064D01*
X134765539Y-91095961D01*
X134765536Y-91095957D01*
X134654039Y-90984460D01*
X134555609Y-90918692D01*
X134510804Y-90865080D01*
X134500500Y-90815590D01*
X134500500Y-88554604D01*
X134509939Y-88507151D01*
X134519737Y-88483497D01*
X134550500Y-88328842D01*
X134550500Y-88171158D01*
X134550500Y-88171155D01*
X134550499Y-88171153D01*
X134547529Y-88156220D01*
X134519737Y-88016503D01*
X134494970Y-87956710D01*
X134459397Y-87870827D01*
X134459390Y-87870814D01*
X134371789Y-87739711D01*
X134371786Y-87739707D01*
X134260292Y-87628213D01*
X134260288Y-87628210D01*
X134129185Y-87540609D01*
X134129172Y-87540602D01*
X133983501Y-87480264D01*
X133983489Y-87480261D01*
X133828845Y-87449500D01*
X133828842Y-87449500D01*
X133671158Y-87449500D01*
X133671155Y-87449500D01*
X133516510Y-87480261D01*
X133516498Y-87480264D01*
X133370827Y-87540602D01*
X133370814Y-87540609D01*
X133239711Y-87628210D01*
X133239707Y-87628213D01*
X133128213Y-87739707D01*
X133128210Y-87739711D01*
X133040609Y-87870814D01*
X133040602Y-87870827D01*
X132980264Y-88016498D01*
X132980261Y-88016510D01*
X132949500Y-88171153D01*
X127505639Y-88171153D01*
X127506707Y-88156220D01*
X127519724Y-87974207D01*
X127522240Y-87956710D01*
X127579130Y-87695192D01*
X127584107Y-87678241D01*
X127677640Y-87427470D01*
X127684985Y-87411388D01*
X127813248Y-87176491D01*
X127822798Y-87161630D01*
X127983195Y-86947366D01*
X127994767Y-86934012D01*
X128184012Y-86744767D01*
X128197366Y-86733195D01*
X128411630Y-86572798D01*
X128426491Y-86563248D01*
X128661388Y-86434985D01*
X128677470Y-86427640D01*
X128928241Y-86334107D01*
X128945192Y-86329130D01*
X129206710Y-86272240D01*
X129224207Y-86269724D01*
X129495582Y-86250316D01*
X129504428Y-86250000D01*
X134171562Y-86250000D01*
X134171573Y-86250000D01*
X134432625Y-86232890D01*
X134689211Y-86181852D01*
X134936940Y-86097759D01*
X135171573Y-85982051D01*
X135389096Y-85836707D01*
X135585786Y-85664214D01*
X136542352Y-84707648D01*
X145894500Y-84707648D01*
X145894500Y-84912351D01*
X145926522Y-85114534D01*
X145989781Y-85309223D01*
X146082715Y-85491613D01*
X146203028Y-85657213D01*
X146347786Y-85801971D01*
X146502749Y-85914556D01*
X146513390Y-85922287D01*
X146629607Y-85981503D01*
X146695776Y-86015218D01*
X146695778Y-86015218D01*
X146695781Y-86015220D01*
X146800137Y-86049127D01*
X146890465Y-86078477D01*
X146991557Y-86094488D01*
X147092648Y-86110500D01*
X147092649Y-86110500D01*
X147297351Y-86110500D01*
X147297352Y-86110500D01*
X147499534Y-86078477D01*
X147694219Y-86015220D01*
X147876610Y-85922287D01*
X147994402Y-85836707D01*
X148042213Y-85801971D01*
X148042215Y-85801968D01*
X148042219Y-85801966D01*
X148186966Y-85657219D01*
X148186968Y-85657215D01*
X148186971Y-85657213D01*
X148239732Y-85584590D01*
X148307287Y-85491610D01*
X148400220Y-85309219D01*
X148463477Y-85114534D01*
X148495500Y-84912352D01*
X148495500Y-84707648D01*
X148463477Y-84505466D01*
X148400220Y-84310781D01*
X148400218Y-84310778D01*
X148400218Y-84310776D01*
X148366503Y-84244607D01*
X148307287Y-84128390D01*
X148299556Y-84117749D01*
X148186971Y-83962786D01*
X148042213Y-83818028D01*
X147876613Y-83697715D01*
X147876612Y-83697714D01*
X147876610Y-83697713D01*
X147819653Y-83668691D01*
X147694223Y-83604781D01*
X147499534Y-83541522D01*
X147324995Y-83513878D01*
X147297352Y-83509500D01*
X147092648Y-83509500D01*
X147068329Y-83513351D01*
X146890465Y-83541522D01*
X146695776Y-83604781D01*
X146513386Y-83697715D01*
X146347786Y-83818028D01*
X146203028Y-83962786D01*
X146082715Y-84128386D01*
X145989781Y-84310776D01*
X145926522Y-84505465D01*
X145894500Y-84707648D01*
X136542352Y-84707648D01*
X141914214Y-79335786D01*
X142086707Y-79139096D01*
X142232051Y-78921573D01*
X142347759Y-78686940D01*
X142431852Y-78439211D01*
X142482890Y-78182625D01*
X142500000Y-77921573D01*
X142500000Y-76879427D01*
X142500316Y-76870581D01*
X142517181Y-76634776D01*
X142518452Y-76616999D01*
X142520968Y-76599500D01*
X142523038Y-76589983D01*
X145894500Y-76589983D01*
X145894500Y-77790001D01*
X145894501Y-77790018D01*
X145905000Y-77892796D01*
X145905001Y-77892799D01*
X145914536Y-77921573D01*
X145960186Y-78059334D01*
X146052288Y-78208656D01*
X146176344Y-78332712D01*
X146325666Y-78424814D01*
X146407570Y-78451954D01*
X146465015Y-78491727D01*
X146491838Y-78556243D01*
X146479523Y-78625018D01*
X146441451Y-78669978D01*
X146347787Y-78738028D01*
X146347782Y-78738032D01*
X146203028Y-78882786D01*
X146082715Y-79048386D01*
X145989781Y-79230776D01*
X145926522Y-79425465D01*
X145894500Y-79627648D01*
X145894500Y-79832351D01*
X145926522Y-80034534D01*
X145989781Y-80229223D01*
X146082715Y-80411613D01*
X146203028Y-80577213D01*
X146347786Y-80721971D01*
X146502749Y-80834556D01*
X146513390Y-80842287D01*
X146606080Y-80889515D01*
X146695776Y-80935218D01*
X146695778Y-80935218D01*
X146695781Y-80935220D01*
X146800137Y-80969127D01*
X146890465Y-80998477D01*
X146933613Y-81005311D01*
X147092648Y-81030500D01*
X147092649Y-81030500D01*
X147297351Y-81030500D01*
X147297352Y-81030500D01*
X147499534Y-80998477D01*
X147694219Y-80935220D01*
X147876610Y-80842287D01*
X148013893Y-80742546D01*
X148042213Y-80721971D01*
X148042215Y-80721968D01*
X148042219Y-80721966D01*
X148186966Y-80577219D01*
X148186968Y-80577215D01*
X148186971Y-80577213D01*
X148280941Y-80447872D01*
X148307287Y-80411610D01*
X148400220Y-80229219D01*
X148463477Y-80034534D01*
X148495500Y-79832352D01*
X148495500Y-79627648D01*
X148463477Y-79425466D01*
X148400220Y-79230781D01*
X148400218Y-79230778D01*
X148400218Y-79230776D01*
X148353504Y-79139096D01*
X148307287Y-79048390D01*
X148299556Y-79037749D01*
X148186971Y-78882786D01*
X148042219Y-78738034D01*
X148042211Y-78738028D01*
X147948547Y-78669978D01*
X147905882Y-78614649D01*
X147899903Y-78545036D01*
X147932508Y-78483240D01*
X147982426Y-78451955D01*
X148064334Y-78424814D01*
X148213656Y-78332712D01*
X148337712Y-78208656D01*
X148429814Y-78059334D01*
X148484999Y-77892797D01*
X148495500Y-77790009D01*
X148495499Y-77087648D01*
X153514500Y-77087648D01*
X153514500Y-77292351D01*
X153546522Y-77494534D01*
X153609781Y-77689223D01*
X153702715Y-77871613D01*
X153823028Y-78037213D01*
X153967786Y-78181971D01*
X154122749Y-78294556D01*
X154133390Y-78302287D01*
X154224840Y-78348883D01*
X154226080Y-78349515D01*
X154276876Y-78397490D01*
X154293671Y-78465311D01*
X154271134Y-78531446D01*
X154226080Y-78570485D01*
X154133386Y-78617715D01*
X153967786Y-78738028D01*
X153823028Y-78882786D01*
X153702715Y-79048386D01*
X153609781Y-79230776D01*
X153546522Y-79425465D01*
X153514500Y-79627648D01*
X153514500Y-79832351D01*
X153546522Y-80034534D01*
X153609781Y-80229223D01*
X153702715Y-80411613D01*
X153823028Y-80577213D01*
X153967786Y-80721971D01*
X154122749Y-80834556D01*
X154133390Y-80842287D01*
X154224840Y-80888883D01*
X154226080Y-80889515D01*
X154276876Y-80937490D01*
X154293671Y-81005311D01*
X154271134Y-81071446D01*
X154226080Y-81110485D01*
X154133386Y-81157715D01*
X153967786Y-81278028D01*
X153823028Y-81422786D01*
X153702715Y-81588386D01*
X153609781Y-81770776D01*
X153546522Y-81965465D01*
X153514500Y-82167648D01*
X153514500Y-82372351D01*
X153546522Y-82574534D01*
X153609781Y-82769223D01*
X153702715Y-82951613D01*
X153823028Y-83117213D01*
X153967786Y-83261971D01*
X154122749Y-83374556D01*
X154133390Y-83382287D01*
X154224840Y-83428883D01*
X154226080Y-83429515D01*
X154276876Y-83477490D01*
X154293671Y-83545311D01*
X154271134Y-83611446D01*
X154226080Y-83650485D01*
X154133386Y-83697715D01*
X153967786Y-83818028D01*
X153823028Y-83962786D01*
X153702715Y-84128386D01*
X153609781Y-84310776D01*
X153546522Y-84505465D01*
X153514500Y-84707648D01*
X153514500Y-84912351D01*
X153546522Y-85114534D01*
X153609781Y-85309223D01*
X153702715Y-85491613D01*
X153823028Y-85657213D01*
X153967786Y-85801971D01*
X154122749Y-85914556D01*
X154133390Y-85922287D01*
X154249607Y-85981503D01*
X154315776Y-86015218D01*
X154315778Y-86015218D01*
X154315781Y-86015220D01*
X154420137Y-86049127D01*
X154510465Y-86078477D01*
X154611557Y-86094488D01*
X154712648Y-86110500D01*
X154712649Y-86110500D01*
X154917351Y-86110500D01*
X154917352Y-86110500D01*
X155119534Y-86078477D01*
X155314219Y-86015220D01*
X155496610Y-85922287D01*
X155614402Y-85836707D01*
X155662213Y-85801971D01*
X155662215Y-85801968D01*
X155662219Y-85801966D01*
X155806966Y-85657219D01*
X155806968Y-85657215D01*
X155806971Y-85657213D01*
X155859732Y-85584590D01*
X155927287Y-85491610D01*
X156020220Y-85309219D01*
X156083477Y-85114534D01*
X156115500Y-84912352D01*
X156115500Y-84707648D01*
X156083477Y-84505466D01*
X156020220Y-84310781D01*
X156020218Y-84310778D01*
X156020218Y-84310776D01*
X155986503Y-84244607D01*
X155927287Y-84128390D01*
X155919556Y-84117749D01*
X155806971Y-83962786D01*
X155662213Y-83818028D01*
X155496614Y-83697715D01*
X155490006Y-83694348D01*
X155403917Y-83650483D01*
X155353123Y-83602511D01*
X155336328Y-83534690D01*
X155358865Y-83468555D01*
X155403917Y-83429516D01*
X155496610Y-83382287D01*
X155517770Y-83366913D01*
X155662213Y-83261971D01*
X155662215Y-83261968D01*
X155662219Y-83261966D01*
X155806966Y-83117219D01*
X155806968Y-83117215D01*
X155806971Y-83117213D01*
X155859732Y-83044590D01*
X155927287Y-82951610D01*
X156020220Y-82769219D01*
X156083477Y-82574534D01*
X156115500Y-82372352D01*
X156115500Y-82167648D01*
X156083477Y-81965466D01*
X156020220Y-81770781D01*
X156020218Y-81770778D01*
X156020218Y-81770776D01*
X155986503Y-81704607D01*
X155927287Y-81588390D01*
X155919556Y-81577749D01*
X155806971Y-81422786D01*
X155662213Y-81278028D01*
X155496614Y-81157715D01*
X155490006Y-81154348D01*
X155403917Y-81110483D01*
X155353123Y-81062511D01*
X155336328Y-80994690D01*
X155358865Y-80928555D01*
X155403917Y-80889516D01*
X155496610Y-80842287D01*
X155517770Y-80826913D01*
X155662213Y-80721971D01*
X155662215Y-80721968D01*
X155662219Y-80721966D01*
X155806966Y-80577219D01*
X155806968Y-80577215D01*
X155806971Y-80577213D01*
X155900941Y-80447872D01*
X155927287Y-80411610D01*
X156020220Y-80229219D01*
X156083477Y-80034534D01*
X156115500Y-79832352D01*
X156115500Y-79627648D01*
X156083477Y-79425466D01*
X156020220Y-79230781D01*
X156020218Y-79230778D01*
X156020218Y-79230776D01*
X155973504Y-79139096D01*
X155927287Y-79048390D01*
X155919556Y-79037749D01*
X155806971Y-78882786D01*
X155662213Y-78738028D01*
X155496614Y-78617715D01*
X155490006Y-78614348D01*
X155403917Y-78570483D01*
X155353123Y-78522511D01*
X155336328Y-78454690D01*
X155358865Y-78388555D01*
X155403917Y-78349516D01*
X155496610Y-78302287D01*
X155625482Y-78208657D01*
X155662213Y-78181971D01*
X155662215Y-78181968D01*
X155662219Y-78181966D01*
X155806966Y-78037219D01*
X155806968Y-78037215D01*
X155806971Y-78037213D01*
X155911892Y-77892799D01*
X155927287Y-77871610D01*
X156020220Y-77689219D01*
X156083477Y-77494534D01*
X156115500Y-77292352D01*
X156115500Y-77087648D01*
X156102316Y-77004407D01*
X156083477Y-76885465D01*
X156020218Y-76690776D01*
X155973710Y-76599500D01*
X155927287Y-76508390D01*
X155879046Y-76441991D01*
X155806971Y-76342786D01*
X155662213Y-76198028D01*
X155496613Y-76077715D01*
X155496612Y-76077714D01*
X155496610Y-76077713D01*
X155436898Y-76047288D01*
X155314223Y-75984781D01*
X155119534Y-75921522D01*
X154944995Y-75893878D01*
X154917352Y-75889500D01*
X154712648Y-75889500D01*
X154688329Y-75893351D01*
X154510465Y-75921522D01*
X154315776Y-75984781D01*
X154133386Y-76077715D01*
X153967786Y-76198028D01*
X153823028Y-76342786D01*
X153702715Y-76508386D01*
X153609781Y-76690776D01*
X153546522Y-76885465D01*
X153514500Y-77087648D01*
X148495499Y-77087648D01*
X148495499Y-76589992D01*
X148484999Y-76487203D01*
X148429814Y-76320666D01*
X148337712Y-76171344D01*
X148213656Y-76047288D01*
X148064334Y-75955186D01*
X147897797Y-75900001D01*
X147897795Y-75900000D01*
X147795010Y-75889500D01*
X146594998Y-75889500D01*
X146594981Y-75889501D01*
X146492203Y-75900000D01*
X146492200Y-75900001D01*
X146325668Y-75955185D01*
X146325663Y-75955187D01*
X146176342Y-76047289D01*
X146052289Y-76171342D01*
X145960187Y-76320663D01*
X145960185Y-76320668D01*
X145932349Y-76404670D01*
X145905001Y-76487203D01*
X145905001Y-76487204D01*
X145905000Y-76487204D01*
X145894500Y-76589983D01*
X142523038Y-76589983D01*
X142574067Y-76355408D01*
X142579044Y-76338457D01*
X142666344Y-76104397D01*
X142673689Y-76088315D01*
X142793405Y-75869071D01*
X142802955Y-75854210D01*
X142952664Y-75654223D01*
X142964230Y-75640875D01*
X143068289Y-75536816D01*
X143129610Y-75503334D01*
X143155968Y-75500500D01*
X159760915Y-75500500D01*
X159827954Y-75520185D01*
G37*
%TD.AperFunction*%
%TD*%
M02*
