M48
; DRILL file {KiCad 9.0.1-1.fc42} date 2025-04-25T18:50:19-0400
; FORMAT={-:-/ absolute / inch / decimal}
; #@! TF.CreationDate,2025-04-25T18:50:19-04:00
; #@! TF.GenerationSoftware,Kicad,Pcbnew,9.0.1-1.fc42
; #@! TF.FileFunction,Plated,1,2,PTH
FMAT,2
INCH
; #@! TA.AperFunction,Plated,PTH,ViaDrill
T1C0.0118
; #@! TA.AperFunction,Plated,PTH,ComponentDrill
T2C0.0236
; #@! TA.AperFunction,Plated,PTH,ComponentDrill
T3C0.0276
; #@! TA.AperFunction,Plated,PTH,ComponentDrill
T4C0.0315
; #@! TA.AperFunction,Plated,PTH,ComponentDrill
T5C0.0551
; #@! TA.AperFunction,Plated,PTH,ComponentDrill
T6C0.1693
%
G90
G05
T1
X4.5276Y-3.8189
X4.5374Y-4.1535
X4.5669Y-4.1535
X4.5866Y-3.7795
X4.5866Y-3.8583
X4.626Y-3.8976
X4.6358Y-3.8189
X4.6358Y-4.2104
X4.685Y-3.8189
X5.0394Y-3.4547
X5.0394Y-3.4843
X5.0394Y-3.8287
X5.0689Y-3.4843
X5.0689Y-3.5138
X5.0689Y-3.5417
X5.0689Y-3.5728
X5.0787Y-3.8287
X5.0984Y-3.5728
X5.0984Y-3.6024
X5.0984Y-3.6319
X5.1063Y-4.2104
X5.1083Y-3.9104
X5.1083Y-4.1604
X5.1181Y-3.8287
X5.1181Y-3.8583
X5.1496Y-3.8268
X5.1496Y-3.8583
X5.1708Y-4.1777
X5.1732Y-4.1496
X5.2657Y-3.4744
X5.2697Y-4.1831
X5.2717Y-4.1535
X5.2717Y-4.2126
X5.2812Y-3.6065
X5.3642Y-4.1535
X5.3642Y-4.1831
X5.3642Y-4.2126
X5.5118Y-4.0945
X5.5118Y-4.124
X5.5118Y-4.1535
X5.5118Y-4.1831
X5.5118Y-4.2126
X5.5413Y-4.0945
X5.5807Y-4.0945
X5.6102Y-4.0945
X5.6102Y-4.124
X5.6102Y-4.1535
X5.6102Y-4.1831
X5.6102Y-4.2126
X5.9154Y-3.4055
X5.9154Y-3.435
X5.9154Y-3.4744
X5.9449Y-3.4055
X5.9449Y-3.4744
X5.9744Y-3.4055
X5.9744Y-3.4744
X6.4075Y-3.878
X6.4075Y-3.9075
X6.4075Y-3.937
X6.4075Y-3.9665
X6.4075Y-3.9961
X6.5059Y-3.878
X6.5059Y-3.9075
X6.5059Y-3.937
X6.5059Y-3.9665
X6.5059Y-3.9961
X6.5157Y-4.1142
X6.5157Y-4.1437
X6.5157Y-4.1732
X6.5157Y-4.2028
X6.5157Y-4.2323
X6.5945Y-4.1142
X6.5945Y-4.1437
X6.5945Y-4.1732
X6.5945Y-4.2028
X6.5945Y-4.2323
T2
X5.7785Y-4.0945
X5.8157Y-4.0047
X5.8157Y-4.1843
X5.9055Y-3.9675
X5.9055Y-4.2215
X5.9953Y-4.0047
X5.9953Y-4.1843
X6.0325Y-4.0945
X6.5659Y-3.1496
X6.6031Y-3.0598
X6.6031Y-3.2394
X6.6929Y-3.0226
X6.6929Y-3.2766
X6.7827Y-3.0598
X6.7827Y-3.2394
X6.8199Y-3.1496
T3
X4.9213Y-3.0118
T4
X5.7951Y-3.039
X5.7951Y-3.139
X5.7951Y-3.239
X5.7951Y-3.339
X6.0951Y-3.039
X6.0951Y-3.139
X6.0951Y-3.239
X6.0951Y-3.339
X6.4563Y-3.7474
X6.4563Y-4.0474
X6.5563Y-3.7474
X6.5563Y-4.0474
X6.6563Y-3.7474
X6.6563Y-4.0474
X6.7563Y-3.7474
X6.7563Y-4.0474
T5
X4.3504Y-3.1339
X4.3504Y-3.3339
X4.3504Y-3.5339
X4.3504Y-3.7339
X4.3504Y-3.9339
X4.3504Y-4.1339
T6
X5.9055Y-4.0945
X6.6929Y-3.1496
M30
